<svg width="42" height="10" viewBox="0 0 42 10" fill="none" xmlns="http://www.w3.org/2000/svg">
<path d="M10.4124 0.813975H12.1305V2.30602H10.4124V0.813975ZM10.4124 3.17384H12.1306V9.44781H10.4124V3.17384Z" fill="#747679"/>
<path d="M14.7459 4.17673H14.7838C15.1755 3.46731 15.6176 3.10037 16.3757 3.10037C16.565 3.10037 16.6789 3.1127 16.78 3.14934V4.60468H16.742C15.6177 4.4947 14.8091 5.06948 14.8091 6.39025V9.44776H13.0908V3.17379H14.7459V4.17673Z" fill="#747679"/>
<path d="M20.1277 0.813975H21.8459V2.30602H20.1277V0.813975ZM20.1278 3.17384H21.846V9.44781H20.1278V3.17384Z" fill="#747679"/>
<path d="M24.4862 4.02985H24.5241C24.9663 3.3572 25.5599 3.00253 26.4443 3.00253C27.7837 3.00253 28.6805 3.98088 28.6805 5.35069V9.44771H26.9624V5.59524C26.9624 4.9226 26.5581 4.44561 25.8379 4.44561C25.08 4.44561 24.5241 5.03265 24.5241 5.88876V9.44771H22.806V3.17373H24.4863V4.02985H24.4862Z" fill="#747679"/>
<path d="M29.3877 6.30468C29.3877 4.44569 30.6888 3.00261 32.5839 3.00261C34.6686 3.00261 35.7803 4.54355 35.7803 6.78159H31.0806C31.207 7.74769 31.7628 8.34706 32.7356 8.34706C33.4052 8.34706 33.7968 8.05354 33.9863 7.57648H35.6793C35.4393 8.68947 34.4159 9.63126 32.7483 9.63126C30.6005 9.63119 29.3877 8.17571 29.3877 6.30468ZM31.1058 5.63203H33.9863C33.9357 4.837 33.3926 4.2866 32.6093 4.2866C31.6996 4.2866 31.2574 4.81256 31.1058 5.63203Z" fill="#747679"/>
<path d="M36.176 7.41746H37.7679C37.8817 8.13907 38.4121 8.45704 39.183 8.45704C39.9411 8.45704 40.3706 8.17571 40.3706 7.73557C40.3706 7.13627 39.5494 7.07505 38.665 6.90398C37.5026 6.6838 36.3656 6.37802 36.3656 5.00828C36.3656 3.65081 37.528 3.00261 39.0061 3.00261C40.7116 3.00261 41.6592 3.82201 41.7855 5.08163H40.2316C40.1557 4.40905 39.7135 4.16443 38.9808 4.16443C38.3112 4.16443 37.869 4.40905 37.869 4.86152C37.869 5.3996 38.7281 5.44856 39.6504 5.6321C40.7369 5.85221 41.9372 6.14573 41.9372 7.61333C41.9372 8.87301 40.8253 9.63133 39.2082 9.63133C37.3257 9.63119 36.2773 8.7507 36.176 7.41746Z" fill="#747679"/>
<path d="M6.35848 0.813974H4.35873L0.743042 9.44774H2.78969L3.45929 7.67443H7.14843L7.83055 9.44774H9.88993L6.35848 0.813974ZM3.95196 6.21902L5.27857 2.54995L6.64295 6.21895H3.95196V6.21902Z" fill="#747679"/>
<path d="M19.1677 0.813975H17.4493V9.44774H19.1677V0.813975Z" fill="#747679"/>
</svg>
