<svg width="14" height="14" viewBox="0 0 14 14" fill="currentColor" xmlns="http://www.w3.org/2000/svg">
<path d="M12.5964 5.76411H14C13.8947 3.51497 12.7859 1.53602 11.1052 0.255331L10.1052 1.25533C11.5298 2.27638 12.4877 3.90444 12.5964 5.76411Z" />
<path d="M3.89825 1.25885L2.89473 0.255331C1.21404 1.53602 0.105263 3.51497 0 5.76411H1.40352C1.51227 3.90444 2.47016 2.27638 3.89825 1.25885Z" />
<path d="M11.2106 6.1149C11.2106 3.95701 10.0632 2.15701 8.05266 1.6798V1.20263C8.05266 0.620164 7.5825 0.15 7.00003 0.15C6.41756 0.15 5.9474 0.620164 5.9474 1.20263V1.67983C3.93687 2.15704 2.78951 3.95704 2.78951 6.11493V9.62368L1.38599 11.0272V11.7289H12.614V11.0272L11.2106 9.62368V6.1149Z" />
<path d="M6.99992 13.8342C7.09818 13.8342 7.19292 13.8237 7.28413 13.8062C7.74028 13.7115 8.11571 13.3957 8.29466 12.9781C8.36482 12.8097 8.40344 12.6272 8.40344 12.4308H5.59644C5.5964 13.2062 6.22449 13.8342 6.99992 13.8342Z" />
</svg>
