<svg width="24" height="24" viewBox="0 0 49 48"  xmlns="http://www.w3.org/2000/svg">
<path fill-rule="evenodd" clip-rule="evenodd" d="M43.4616 40.5472H40.5415V44.5182C40.5415 45.8927 39.4272 47 38.044 47H34.5859C33.2027 47 32.0885 45.8927 32.0885 44.5182V40.5854H16.8347V44.5182C16.8347 45.8927 15.7204 47 14.3372 47H10.8792C9.49596 47 8.3817 45.8927 8.3817 44.5182V40.5854H5.5V9.27599C5.5 6.37415 7.1906 4.27412 10.6102 2.97593C17.3726 0.341357 31.589 0.341357 38.3898 2.97593C41.8094 4.27412 43.5 6.37415 43.5 9.27599V40.5472H43.4616ZM18.7174 4.27412H30.2826C30.6284 4.27412 30.8974 4.5414 30.8974 4.88504V6.87051C30.8974 7.21415 30.6284 7.48143 30.2826 7.48143H18.7174C18.3716 7.48143 18.1026 7.21415 18.1026 6.87051V4.88504C18.1026 4.5414 18.3716 4.27412 18.7174 4.27412ZM9.68807 9.84873H39.1582C39.5425 9.84873 39.8883 10.1924 39.8883 10.5742V26.9162C39.8883 27.298 39.5425 27.6416 39.1582 27.6416H9.68807C9.30384 27.6416 8.95804 27.298 8.95804 26.9162V10.5742C8.95804 10.1924 9.26542 9.84873 9.68807 9.84873ZM38.774 33.4071C38.774 32.6817 38.5051 32.0326 38.0056 31.5362C37.5061 31.0398 36.8529 30.7726 36.1229 30.7726C35.3928 30.7726 34.7781 31.0398 34.2401 31.5362C33.7022 32.0326 33.4717 32.6817 33.4717 33.4071C33.4717 34.1326 33.7407 34.7435 34.2401 35.2399C34.7781 35.7363 35.3928 36.0035 36.1229 36.0035C36.8529 36.0035 37.5061 35.7363 38.0056 35.2399C38.5435 34.7435 38.774 34.1326 38.774 33.4071ZM15.5283 33.4071C15.5283 32.6817 15.2594 32.0326 14.7599 31.5362C14.2604 31.0398 13.6072 30.7726 12.8771 30.7726C12.1471 30.7726 11.4939 31.0398 10.9944 31.5362C10.4949 32.0326 10.226 32.6817 10.226 33.4071C10.226 34.1326 10.4565 34.7435 10.9944 35.2399C11.4939 35.7363 12.1471 36.0035 12.8771 36.0035C13.6456 36.0035 14.2604 35.7363 14.7599 35.2399C15.2594 34.7435 15.5283 34.1326 15.5283 33.4071Z" />
</svg>
