<svg width="16" height="16" viewBox="0 0 16 16" fill="none" xmlns="http://www.w3.org/2000/svg">
<path d="M14.9688 6.29901C14.8939 6.05784 14.6948 5.88208 14.455 5.84567L10.3891 5.22744L8.57075 1.37133C8.46353 1.14397 8.24224 1 8 1C7.75771 1 7.53643 1.14397 7.42925 1.37133L5.611 5.2274L1.54497 5.84562C1.30523 5.88208 1.10601 6.05784 1.03116 6.29897C0.956314 6.54014 1.01873 6.80485 1.19223 6.98181L4.13442 9.98288L3.43959 14.2213C3.39865 14.4712 3.49679 14.7237 3.69279 14.8728C3.80366 14.9571 3.93499 15 4.06695 15C4.16823 15 4.26994 14.9747 4.36308 14.9235L7.99996 12.9226L11.6368 14.9235C11.7305 14.975 11.8331 14.9996 11.9347 15C12.2858 14.9995 12.5703 14.7015 12.5703 14.3339C12.5703 14.2827 12.5648 14.2329 12.5543 14.1851L11.8655 9.98292L14.8077 6.98181C14.9813 6.80485 15.0437 6.54014 14.9688 6.29901Z" fill="#333333"/>
</svg>
