<svg width="16" height="16" viewBox="0 0 16 16" fill="none" xmlns="http://www.w3.org/2000/svg">
<path d="M8.35693 5.07129V8.6427L11.414 10.457L11.9283 9.58915L9.42836 8.10699V5.07129H8.35693Z" fill="#333333"/>
<path d="M9.06785 1.5C5.51429 1.5 2.64286 4.37856 2.64286 7.92857H0.5L3.28213 10.7107L3.33212 10.8143L6.2143 7.92857H4.07144C4.07144 5.16787 6.31073 2.92858 9.07143 2.92858C11.8321 2.92858 14.0714 5.16787 14.0714 7.92857C14.0714 10.6893 11.8321 12.9286 9.07143 12.9286C7.68929 12.9286 6.44285 12.3643 5.5393 11.4607L4.52857 12.4714C5.6893 13.6357 7.29286 14.3571 9.06785 14.3571C12.6214 14.3571 15.5 11.4786 15.5 7.92857C15.5 4.37856 12.6214 1.5 9.06785 1.5Z" fill="#333333"/>
</svg>
