<svg width="20" height="18" viewBox="0 0 20 18" xmlns="http://www.w3.org/2000/svg">
<path d="M14.6875 0C13.6022 0 12.6072 0.343906 11.7302 1.02219C10.8894 1.67246 10.3296 2.5007 10 3.10297C9.67043 2.50066 9.11063 1.67246 8.2698 1.02219C7.39277 0.343906 6.39777 0 5.3125 0C2.28391 0 0 2.47723 0 5.76227C0 9.31125 2.84934 11.7394 7.16285 15.4153C7.89535 16.0396 8.72563 16.7471 9.58859 17.5018C9.70234 17.6014 9.84844 17.6562 10 17.6562C10.1516 17.6562 10.2977 17.6014 10.4114 17.5018C11.2745 16.7471 12.1047 16.0395 12.8376 15.4149C17.1507 11.7394 20 9.31125 20 5.76227C20 2.47723 17.7161 0 14.6875 0Z" fill="current"/>
</svg>
