<svg width="16" height="16" viewBox="0 0 16 16" fill="none" xmlns="http://www.w3.org/2000/svg">
<path d="M8.26562 15C9.17172 15 9.90625 14.2655 9.90625 13.3594C9.90625 12.4533 9.17172 11.7188 8.26562 11.7188C7.35953 11.7188 6.625 12.4533 6.625 13.3594C6.625 14.2655 7.35953 15 8.26562 15Z" fill="#333333"/>
<path d="M8.26562 1C5.91354 1 4 2.91354 4 5.26562V5.67578H7.28125V5.26562C7.28125 4.72282 7.72282 4.28125 8.26562 4.28125C8.80843 4.28125 9.25 4.72282 9.25 5.26562C9.25 5.55487 9.12304 5.82863 8.90164 6.01679L6.625 7.95237V10.8984H9.90625V9.46951L11.0267 8.51693C11.9828 7.70444 12.5312 6.51942 12.5312 5.26562C12.5312 2.91354 10.6177 1 8.26562 1V1Z" fill="#333333"/>
</svg>
