<svg width="24" height="24" viewBox="0 0 24 24" fill="none" xmlns="http://www.w3.org/2000/svg">
<path d="M16.2939 14.5786H15.3848L15.0703 14.2642C16.191 12.9663 16.8656 11.2796 16.8656 9.43284C16.8656 5.32762 13.538 2 9.43284 2C5.32767 2 2 5.32762 2 9.43284C2 13.5381 5.32762 16.8657 9.43284 16.8657C11.2796 16.8657 12.9663 16.191 14.2642 15.0761L14.5786 15.3905V16.2939L20.2962 22L22 20.2962L16.2939 14.5786ZM9.43284 14.5786C6.59123 14.5786 4.28704 12.2744 4.28704 9.43284C4.28704 6.59123 6.59123 4.28704 9.43284 4.28704C12.2744 4.28704 14.5786 6.59123 14.5786 9.43284C14.5786 12.2744 12.2744 14.5786 9.43284 14.5786Z" fill="#A1A1A1"/>
</svg>
