<svg width="60" height="60" viewBox="0 0 60 60" fill="none" xmlns="http://www.w3.org/2000/svg">
<rect width="60" height="60" rx="4" fill="#235EF5"/>
<path d="M34.2939 32.5786H33.3848L33.0703 32.2642C34.191 30.9663 34.8656 29.2796 34.8656 27.4328C34.8656 23.3276 31.538 20 27.4328 20C23.3277 20 20 23.3276 20 27.4328C20 31.5381 23.3276 34.8657 27.4328 34.8657C29.2796 34.8657 30.9663 34.191 32.2642 33.0761L32.5786 33.3905V34.2939L38.2962 40L40 38.2962L34.2939 32.5786ZM27.4328 32.5786C24.5912 32.5786 22.287 30.2744 22.287 27.4328C22.287 24.5912 24.5912 22.287 27.4328 22.287C30.2744 22.287 32.5786 24.5912 32.5786 27.4328C32.5786 30.2744 30.2744 32.5786 27.4328 32.5786Z" fill="white"/>
</svg>
