<svg width="16" height="16" viewBox="0 0 16 16" fill="none" xmlns="http://www.w3.org/2000/svg">
<path d="M13.5967 6.76415H15.0002C14.8949 4.51501 13.7862 2.53606 12.1055 1.25537L11.1055 2.25537C12.53 3.27642 13.4879 4.90448 13.5967 6.76415Z" fill="#333333"/>
<path d="M4.89825 2.25889L3.89473 1.25537C2.21404 2.53606 1.10526 4.51501 1 6.76415H2.40352C2.51227 4.90448 3.47016 3.27642 4.89825 2.25889Z" fill="#333333"/>
<path d="M12.2103 7.1148C12.2103 4.95691 11.0629 3.15691 9.05242 2.6797V2.20253C9.05242 1.62007 8.58226 1.1499 7.99979 1.1499C7.41732 1.1499 6.94716 1.62007 6.94716 2.20253V2.67974C4.93663 3.15694 3.78926 4.95694 3.78926 7.11484V10.6236L2.38574 12.0271V12.7288H13.6138V12.0271L12.2103 10.6236V7.1148Z" fill="#333333"/>
<path d="M8.00017 14.8342C8.09842 14.8342 8.19316 14.8236 8.28438 14.8061C8.74053 14.7114 9.11596 14.3956 9.2949 13.978C9.36507 13.8096 9.40369 13.6271 9.40369 13.4307H6.59668C6.59665 14.2061 7.22474 14.8342 8.00017 14.8342Z" fill="#333333"/>
</svg>
