<svg width="24" height="24" viewBox="0 0 48 48"  xmlns="http://www.w3.org/2000/svg">
<path d="M40 32.9049V9.89855C40 5.5361 36.4555 2 32.081 2H15.919C11.5461 2 8 5.5361 8 9.89855V32.9049C8 36.212 10.4129 38.9676 13.5751 39.5161L8.60881 47H13.0244L15.0627 43.9273H32.9389L34.9772 47H39.392L34.4265 39.5161C37.5879 38.9669 40 36.212 40 32.9049ZM17.1428 5.54621H30.8572V7.82609H17.1428V5.54621ZM13.0165 12.9148C13.0165 11.923 13.8217 11.1185 14.816 11.1185H33.1847C34.1783 11.1185 34.9849 11.923 34.9849 12.9148V20.4915C34.9849 21.4832 34.1782 22.287 33.1847 22.287H14.8161C13.8218 22.287 13.0166 21.4832 13.0166 20.4915V12.9148H13.0165ZM14.7307 34.8714C13.5713 34.8714 12.6312 33.9338 12.6312 32.7781C12.6312 31.6208 13.5713 30.6831 14.7307 30.6831C15.8902 30.6831 16.8303 31.6207 16.8303 32.7781C16.8303 33.9338 15.8902 34.8714 14.7307 34.8714ZM16.3882 41.9298L17.9223 39.6167H30.0785L31.6126 41.9298H16.3882ZM33.2701 34.8714C32.1106 34.8714 31.1706 33.9338 31.1706 32.7781C31.1706 31.6208 32.1106 30.6831 33.2701 30.6831C34.4296 30.6831 35.3697 31.6207 35.3697 32.7781C35.3697 33.9338 34.4296 34.8714 33.2701 34.8714Z" />
</svg>
