<svg width="14" height="14" viewBox="0 0 14 14" fill="none" xmlns="http://www.w3.org/2000/svg">
<path d="M7.00003 7.875C4.66812 7.875 0 9.04313 0 11.375V14H14V11.375C14 9.04313 9.33189 7.875 7.00003 7.875ZM12.3375 12.3375H1.66249V11.375C1.66249 10.8106 4.39688 9.53749 6.99999 9.53749C9.60309 9.53749 12.3375 10.8106 12.3375 11.375V12.3375H12.3375Z" fill="white"/>
<path d="M7.00003 7.00003C8.9338 7.00003 10.5 5.42941 10.5 3.50004C10.5 1.56627 8.93376 0 7.00003 0C5.06631 0 3.5 1.56627 3.5 3.49999C3.5 5.42937 5.06627 7.00003 7.00003 7.00003ZM7.00003 1.66249C8.01505 1.66249 8.83754 2.48498 8.83754 3.49999C8.83754 4.51501 8.01505 5.3375 7.00003 5.3375C5.98502 5.3375 5.16253 4.51501 5.16253 3.49999C5.16253 2.48502 5.98502 1.66249 7.00003 1.66249Z" fill="white"/>
</svg>
