<svg width="48" height="48" viewBox="0 0 48 48" fill="none" xmlns="http://www.w3.org/2000/svg">
<g id="Type=Social, Outline / Fill=Off, Size=48px, Icon=OK">
<g id="Odnoklassniki (OK)">
<rect id="Rectangle" width="48" height="48" rx="24" fill="#EE8208"/>
<path id="Vector" d="M23.9998 12.8402C25.8854 12.8402 27.4192 14.374 27.4192 16.2596C27.4192 18.1436 25.885 19.6774 23.9998 19.6774C22.1154 19.6774 20.5812 18.1436 20.5812 16.2596C20.5808 14.3736 22.1158 12.8402 23.9998 12.8402ZM23.9998 24.5152C28.5546 24.5152 32.2586 20.8124 32.2586 16.2596C32.2586 11.7044 28.5549 8 23.9998 8C19.4454 8 15.741 11.7048 15.741 16.2596C15.741 20.8124 19.4454 24.5152 23.9998 24.5152ZM27.341 31.2517C29.0399 30.8648 30.6613 30.1934 32.1364 29.266C32.6795 28.9244 33.0646 28.3809 33.207 27.7553C33.3495 27.1297 33.2375 26.4731 32.8958 25.93C32.7269 25.6609 32.5065 25.4276 32.2473 25.2437C31.9881 25.0598 31.6952 24.9287 31.3853 24.8581C31.0754 24.7875 30.7547 24.7786 30.4414 24.832C30.1281 24.8855 29.8284 25.0001 29.5594 25.1695C26.176 27.2966 21.8213 27.295 18.4406 25.1695C18.1717 25.0001 17.872 24.8854 17.5587 24.8319C17.2454 24.7785 16.9247 24.7873 16.6148 24.858C16.305 24.9286 16.0121 25.0597 15.753 25.2436C15.4938 25.4276 15.2735 25.6608 15.1046 25.93C14.7628 26.473 14.6507 27.1294 14.7928 27.755C14.935 28.3807 15.3199 28.9242 15.8628 29.266C17.3378 30.1931 18.9589 30.8644 20.6575 31.2517L16.0407 35.8693C15.5869 36.3232 15.3321 36.9387 15.3322 37.5804C15.3323 38.2222 15.5874 38.8376 16.0412 39.2913C16.4951 39.745 17.1106 39.9998 17.7524 39.9997C18.3941 39.9996 19.0095 39.7446 19.4632 39.2907L23.999 34.7541L28.5376 39.2911C28.762 39.5158 29.0285 39.6941 29.3218 39.8157C29.6152 39.9374 29.9297 40 30.2473 40C30.5649 40 30.8793 39.9374 31.1727 39.8157C31.4661 39.6941 31.7326 39.5158 31.957 39.2911C32.182 39.0667 32.3606 38.8001 32.4825 38.5066C32.6043 38.2131 32.667 37.8984 32.667 37.5806C32.667 37.2628 32.6043 36.9481 32.4825 36.6546C32.3606 36.361 32.182 36.0945 31.957 35.8701L27.341 31.2517Z" fill="white"/>
</g>
</g>
</svg>
