<svg width="48" height="48" viewBox="0 0 48 48" fill="none" xmlns="http://www.w3.org/2000/svg">
<g id="Type=Social, Outline / Fill=Off, Size=48px, Icon=Yandex">
<g id="Yandex (&#208;&#175;&#208;&#189;&#208;&#180;&#208;&#181;&#208;&#186;&#209;&#129;)">
<rect id="Rectangle" width="48" height="48" rx="24" fill="#FF0000"/>
<path id="Vector" d="M29.9171 8H25.0685C20.3041 8 16.2638 11.6264 16.2638 18.6671C16.2638 22.8909 18.2205 26.005 21.7078 27.5412L15.2004 39.3175C14.9874 39.7021 15.2004 40 15.5405 40H18.5604C18.8156 40 18.9864 39.9151 19.0713 39.7021L24.9833 28.1389H27.11V39.7021C27.11 39.8292 27.2372 40 27.4074 40H30.0449C30.3 40 30.385 39.8721 30.385 39.6599V8.42656C30.3851 8.12788 30.2152 8 29.9171 8ZM27.1099 25.4084H25.3235C22.5166 25.4084 19.7948 23.3604 19.7948 18.2404C19.7948 12.9062 22.3466 10.7305 24.9405 10.7305H27.11V25.4084H27.1099Z" fill="white"/>
</g>
</g>
</svg>
