<svg width="27" height="16" viewBox="0 0 27 16" fill="current" xmlns="http://www.w3.org/2000/svg">
<path d="M4.34344 0.500122H2.89149C2.22548 0.500122 1.68369 1.04194 1.68369 1.70792V3.13918H2.5783V1.70792C2.5783 1.53521 2.71878 1.39476 2.89146 1.39476H4.34341C4.51612 1.39476 4.65659 1.53524 4.65659 1.70792V3.13918H5.55123V1.70792C5.55123 1.04194 5.00942 0.500122 4.34344 0.500122Z"/>
<path d="M6.39097 4.03381H0.843897C0.378574 4.03381 0 4.41239 0 4.87771V12.6322C0 13.0975 0.378574 13.476 0.843897 13.476H6.39097C6.85629 13.476 7.23486 13.0975 7.23486 12.6322V4.87774C7.23486 4.41239 6.85632 4.03381 6.39097 4.03381Z"/>
<path d="M0.843895 14.3707C0.810145 14.3707 0.776688 14.3695 0.743378 14.3676V15.0528C0.743378 15.2998 0.943651 15.5001 1.19068 15.5001C1.43771 15.5001 1.63799 15.2998 1.63799 15.0528V14.3707H0.843895Z"/>
<path d="M6.39097 14.3707H5.59685V15.0528C5.59685 15.2998 5.79712 15.5001 6.04415 15.5001C6.29118 15.5001 6.49146 15.2998 6.49146 15.0528V14.3676C6.45818 14.3695 6.42472 14.3707 6.39097 14.3707Z"/>
<path d="M20.544 4.23103V3.3482C20.544 2.68659 20.0057 2.14832 19.344 2.14832H17.891C17.2293 2.14832 16.691 2.68659 16.691 3.3482V4.23103H15.3045V13.8522H21.9304V4.23103H20.544ZM19.6564 4.231H17.5787V3.34817H17.5787C17.5787 3.17596 17.7188 3.03584 17.891 3.03584H19.3441C19.5163 3.03584 19.6564 3.17596 19.6564 3.34817V4.231Z"/>
<path d="M24.0399 4.23108H22.818V13.8522H24.0399C25.1854 13.8522 26.1174 12.9202 26.1174 11.7747V6.30858C26.1174 5.16304 25.1855 4.23108 24.0399 4.23108Z"/>
<path d="M14.417 4.23108H13.195C12.0494 4.23108 11.1174 5.16304 11.1174 6.30858V11.7747C11.1174 12.9202 12.0494 13.8522 13.195 13.8522H14.4171L14.417 4.23108Z"/>
</svg>
