<svg width="16" height="16" viewBox="0 0 16 16" fill="#333333" xmlns="http://www.w3.org/2000/svg">
<path d="M11.4444 7.42224H10.0667V8.80003H11.4444V7.42224Z"/>
<path d="M8.68889 7.42224H7.3111V8.80003H8.68889V7.42224Z"/>
<path d="M5.93334 7.42224H4.55554V8.80003H5.93334V7.42224Z"/>
<path d="M12.8222 2.60002H12.1334V1.22223H10.7556V2.60002H5.24445V1.22223H3.86666V2.60002H3.17778C2.41311 2.60002 1.8069 3.22002 1.8069 3.97781L1.79999 13.6222C1.79999 14.38 2.41311 15 3.17778 15H12.8222C13.58 15 14.2 14.38 14.2 13.6222V3.97778C14.2 3.22002 13.58 2.60002 12.8222 2.60002ZM12.8222 13.6222H3.17778V6.04444H12.8222V13.6222Z"/>
</svg>
