<svg width="20" height="20" viewBox="0 0 20 20" fill="none" xmlns="http://www.w3.org/2000/svg">
<g clip-path="url(#clip0_1902_32298)">
<path d="M2.5 7.50004C2.5 7.05801 2.67559 6.63409 2.98816 6.32153C3.30072 6.00897 3.72464 5.83337 4.16667 5.83337H15.8333C16.2754 5.83337 16.6993 6.00897 17.0118 6.32153C17.3244 6.63409 17.5 7.05801 17.5 7.50004V15C17.5 15.4421 17.3244 15.866 17.0118 16.1786C16.6993 16.4911 16.2754 16.6667 15.8333 16.6667H4.16667C3.72464 16.6667 3.30072 16.4911 2.98816 16.1786C2.67559 15.866 2.5 15.4421 2.5 15V7.50004Z" fill="#333333" stroke="#333333" stroke-linecap="round" stroke-linejoin="round"/>
<path d="M6.66699 5.83333V4.16667C6.66699 3.72464 6.84259 3.30072 7.15515 2.98816C7.46771 2.67559 7.89163 2.5 8.33366 2.5H11.667C12.109 2.5 12.5329 2.67559 12.8455 2.98816C13.1581 3.30072 13.3337 3.72464 13.3337 4.16667V5.83333" stroke="#333333" stroke-linecap="round" stroke-linejoin="round"/>
<path d="M10 10V10.0083" stroke="white" stroke-linecap="round" stroke-linejoin="round"/>
<path d="M2.5 10.8334C4.82632 12.0056 7.39502 12.6162 10 12.6162C12.605 12.6162 15.1737 12.0056 17.5 10.8334" stroke="white" stroke-linecap="round" stroke-linejoin="round"/>
</g>
<defs>
<clipPath id="clip0_1902_32298">
<rect width="20" height="20" fill="white"/>
</clipPath>
</defs>
</svg>
