<svg width="54" height="54" viewBox="0 0 54 54" fill="none" xmlns="http://www.w3.org/2000/svg">
<g id="Icon" opacity="0.2">
<path id="Vector" d="M16.875 48.159C18.4972 44.9145 21.285 41.2358 23.8207 38.2478M31.6597 17.0685L29.7967 18.9315C29.3787 19.3497 28.8824 19.6814 28.3361 19.9076C27.7898 20.1339 27.2043 20.2502 26.613 20.25H23.4315C22.5877 20.25 21.7777 20.5853 21.1815 21.1815C20.886 21.477 20.6515 21.8278 20.4916 22.2138C20.3316 22.5999 20.2493 23.0137 20.2493 23.4315C20.2493 23.8494 20.3316 24.2632 20.4916 24.6493C20.6515 25.0353 20.886 25.3861 21.1815 25.6815L25.2967 29.7968C26.1406 30.6404 27.285 31.1143 28.4782 31.1143C29.6715 31.1143 30.8159 30.6404 31.6597 29.7968L34.8412 26.613L37.0102 31.3853C37.2126 31.8312 37.52 32.2214 37.9062 32.5224C38.2924 32.8234 38.7458 33.0263 39.2276 33.1137C39.7094 33.2011 40.2052 33.1703 40.6725 33.0241C41.1398 32.8778 41.5647 32.6205 41.9107 32.274C42.4777 31.707 42.7972 30.9353 42.7972 30.132V20.5245C42.7971 19.9333 42.9134 19.3477 43.1397 18.8015C43.3659 18.2552 43.6976 17.7588 44.1157 17.3408L49.1602 12.294C50.2222 11.2365 51.7072 8.4758 49.1602 5.93105C46.6155 3.38629 43.857 4.8713 42.7972 5.93105L38.8192 9.90904L31.6597 17.0685ZM31.6597 17.0685L27.1147 15.552C26.5881 15.3763 26.1152 15.069 25.7407 14.6591C25.3663 14.2493 25.1028 13.7506 24.9752 13.2103C24.8476 12.67 24.8602 12.1061 25.0118 11.572C25.1634 11.038 25.4489 10.5515 25.8412 10.1588V10.1588C26.1695 9.83045 26.5642 9.57608 26.9988 9.41271C27.4334 9.24934 27.898 9.18075 28.3612 9.21154L38.8192 9.90904L31.6597 17.0685ZM31.6597 17.0685L38.8192 9.90904L31.6597 17.0685ZM4.5 33.5363C6.08625 30.7598 8.60625 28.3163 11.25 26.3273L4.5 33.5363ZM4.5 50.409C6.912 43.6545 11.3737 37.89 15.8017 33.534L4.5 50.409Z" stroke="white" stroke-width="2" stroke-linecap="round" stroke-linejoin="round"/>
</g>
</svg>
