<svg width="24" height="24" viewBox="0 0 24 24" fill="none" xmlns="http://www.w3.org/2000/svg">
<path fill-rule="evenodd" clip-rule="evenodd" d="M12 20C16.4183 20 20 16.4183 20 12C20 7.58172 16.4183 4 12 4C7.58172 4 4 7.58172 4 12C4 16.4183 7.58172 20 12 20ZM16.3738 10.3738C16.7643 9.98325 16.7643 9.35008 16.3738 8.95956C15.9832 8.56904 15.3501 8.56904 14.9596 8.95956L10.6667 13.2525L9.04044 11.6262C8.64992 11.2357 8.01675 11.2357 7.62623 11.6262C7.2357 12.0168 7.2357 12.6499 7.62623 13.0404L9.95956 15.3738C10.3501 15.7643 10.9832 15.7643 11.3738 15.3738L16.3738 10.3738Z" fill="#235EF5"/>
</svg>
