<svg width="48" height="48" viewBox="0 0 48 48" fill="none" xmlns="http://www.w3.org/2000/svg">
<path d="M11.945 17.0606L9.45286 19.5527C11.9062 11.5137 20.412 6.98568 28.451 9.43905C31.5146 10.374 34.2052 12.2519 36.1395 14.8051L38.345 13.134C32.3547 5.21471 21.0788 3.65081 13.1594 9.6411C9.87696 12.1239 7.54578 15.6577 6.55507 19.6524L3.95771 17.0606L2 19.0169L7.95343 24.9703L13.9069 19.0169L11.945 17.0606Z" fill="#235EF5"/>
<path d="M40.047 23.002L34.0936 28.9554L36.0513 30.9131L38.5725 28.3933C36.1407 36.4452 27.642 41.0012 19.5901 38.5694C16.3874 37.6021 13.5924 35.6073 11.6367 32.893L9.38965 34.5101C12.1667 38.3926 16.3803 41.0042 21.093 41.7636C22.0589 41.9204 23.0358 41.9995 24.0143 42.0003C32.2797 41.9964 39.475 36.3511 41.4454 28.324L44.0372 30.9131L46.0005 28.9554L40.047 23.002ZM39.9778 26.9908L40.0484 26.9201L40.1509 27.024L39.9778 26.9908Z" fill="#235EF5"/>
</svg>
