<svg width="40" height="22" viewBox="0 0 40 22" fill="none" xmlns="http://www.w3.org/2000/svg">
    <path d="M1 21.9989V8.02976C1.07626 7.24353 1.2889 6.11604 1.89309 4.89782C2.50022 3.67673 3.23493 2.89914 3.48717 2.64283C3.88898 2.23675 4.62663 1.57005 5.72063 1.01422C5.9626 0.89182 7.01261 0.370551 8.52749 0.137275C9.12729 0.0451169 10.2536 -0.11904 11.5895 0.137275C13.6822 0.539027 15.0871 1.74428 15.7368 2.39227C15.3716 2.31163 14.8143 2.28715 14.1412 2.33035C12.6542 2.42395 11.6174 2.95962 11.1437 3.26921C10.6392 3.59897 9.8796 4.17208 9.293 5.14838C8.768 6.02532 8.52749 6.84034 8.46443 8.15504V21.9989" fill="#235EF5"/>
    <path d="M11.1437 15.1696C11.0586 14.6699 11.0161 14.163 11.0161 13.6561V8.40457C11.0234 8.07626 11.0836 7.38075 11.5265 6.65069C12.0837 5.73054 12.8976 5.33455 13.1851 5.20927C14.1163 4.80608 14.9419 4.9112 15.2895 4.96016C15.6766 5.01344 16.4348 5.12864 17.1402 5.71182C17.2516 5.80398 17.7722 6.24605 18.0963 7.02652C18.2738 7.45275 18.3324 7.8329 18.3515 8.0921V13.6086C18.3515 14.3805 18.5187 15.1451 18.8545 15.842C18.8574 15.8478 18.8604 15.8535 18.8618 15.8593C19.4235 17.017 20.1699 17.7313 20.4574 17.989C20.9413 18.4224 21.9165 19.2764 23.4563 19.5543C24.4433 19.7343 25.2704 19.6047 25.7514 19.4923C25.4317 19.7674 24.9624 20.1346 24.3494 20.4946C23.5385 20.9712 21.5631 22.0944 18.9264 21.8726C16.0784 21.6321 14.2131 19.9704 13.5033 19.2418C11.9928 17.6881 11.3373 15.9817 11.1437 15.1696Z" fill="#235EF5"/>
    <path d="M21.0308 13.2026V7.71629C21.066 7.1115 21.1892 6.21296 21.6057 5.2093C22.3037 3.52886 23.4153 2.55687 23.9022 2.14072C25.5872 0.699312 27.347 0.29324 27.7928 0.199642C28.1711 0.119003 29.8239 -0.20067 31.877 0.32348C33.8098 0.81883 35.1135 1.81241 35.7675 2.39128C35.3921 2.33368 34.8642 2.28472 34.2365 2.32936C32.7172 2.43448 31.6584 3.01335 31.4297 3.14294C30.1905 3.84277 29.5335 4.77011 29.3253 5.08546C29.1068 5.41522 28.6668 6.09488 28.4952 7.0899C28.4204 7.52046 28.4175 7.89053 28.4322 8.15404L28.3676 13.6043C28.3706 13.9514 28.3295 14.8168 27.7297 15.6088C26.844 16.7766 25.4215 16.886 24.9229 16.9235C24.4111 16.9638 23.1088 17.0055 22.116 16.0465C21.5646 15.5152 21.3006 14.9478 21.2229 14.6066C21.0953 14.1486 21.0308 13.6778 21.0308 13.2026Z" fill="#235EF5"/>
    <path d="M30.9193 21.8726V8.78904C30.9193 7.9769 31.151 7.17627 31.613 6.5038C31.635 6.46925 31.6599 6.43469 31.6848 6.40013C31.9121 6.09053 32.2626 5.61822 32.8976 5.27263C33.9476 4.70096 35.0123 4.88816 35.3848 4.96016C35.7558 5.03071 36.5858 5.20063 37.2985 5.89902C37.9878 6.57436 38.1755 7.35627 38.2562 7.71626C38.3837 8.28649 38.3192 8.71848 38.3192 9.09431V21.8726" fill="#235EF5"/>
    </svg>