<svg width="98" height="22" viewBox="0 0 98 22" fill="none" xmlns="http://www.w3.org/2000/svg">
    <g clip-path="url(#clip0_3870_11911)">
    <path d="M0 22.0009V8.03171C0.0762575 7.24549 0.288898 6.11799 0.893092 4.89977C1.50022 3.67868 2.23493 2.90109 2.48717 2.64478C2.88898 2.23871 3.62663 1.572 4.72063 1.01617C4.9626 0.893773 6.01261 0.372504 7.52749 0.139228C8.12729 0.04707 9.25355 -0.117087 10.5895 0.139228C12.6822 0.54098 14.0871 1.74624 14.7368 2.39422C14.3716 2.31359 13.8143 2.28911 13.1412 2.3323C11.6542 2.4259 10.6174 2.96157 10.1437 3.27117C9.63924 3.60092 8.8796 4.17403 8.293 5.15033C7.768 6.02727 7.52749 6.8423 7.46443 8.15699V22.0009" fill="white"/>
    <path d="M10.1437 15.1715C10.0587 14.6719 10.0161 14.165 10.0161 13.6581V8.40655C10.0235 8.07824 10.0836 7.38273 10.5265 6.65267C11.0837 5.73253 11.8976 5.33654 12.1851 5.21126C13.1163 4.80807 13.9419 4.91318 14.2895 4.96214C14.6766 5.01542 15.4348 5.13062 16.1402 5.71381C16.2516 5.80597 16.7722 6.24804 17.0963 7.0285C17.2738 7.45473 17.3324 7.83489 17.3515 8.09408V13.6106C17.3515 14.3824 17.5187 15.1471 17.8545 15.844C17.8574 15.8498 17.8604 15.8555 17.8618 15.8613C18.4235 17.019 19.17 17.7332 19.4574 17.991C19.9413 18.4244 20.9165 19.2783 22.4564 19.5563C23.4433 19.7362 24.2704 19.6066 24.7514 19.4943C24.4317 19.7694 23.9624 20.1366 23.3495 20.4966C22.5385 20.9732 20.5631 22.0964 17.9264 21.8746C15.0785 21.6341 13.2131 19.9724 12.5033 19.2438C10.9928 17.69 10.3373 15.9837 10.1437 15.1715Z" fill="white"/>
    <path d="M20.0308 13.2045V7.71821C20.066 7.11343 20.1892 6.21488 20.6056 5.21122C21.3037 3.53078 22.4153 2.5588 22.9022 2.14265C24.5872 0.701235 26.347 0.295162 26.7928 0.201564C27.1711 0.120926 28.8239 -0.198748 30.8769 0.325402C32.8098 0.820752 34.1135 1.81433 34.7675 2.3932C34.3921 2.3356 33.8642 2.28664 33.2365 2.33128C31.7172 2.4364 30.6584 3.01527 30.4297 3.14487C29.1905 3.84469 28.5335 4.77203 28.3253 5.08739C28.1067 5.41714 27.6668 6.09681 27.4952 7.09183C27.4204 7.52238 27.4175 7.89245 27.4322 8.15597L27.3676 13.6063C27.3706 13.9533 27.3295 14.8187 26.7297 15.6107C25.8439 16.7785 24.4215 16.888 23.9228 16.9254C23.411 16.9657 22.1088 17.0075 21.116 16.0484C20.5646 15.5171 20.3006 14.9498 20.2229 14.6085C20.0953 14.1506 20.0308 13.6797 20.0308 13.2045Z" fill="white"/>
    <path d="M29.9193 21.8746V8.79099C29.9193 7.97885 30.151 7.17822 30.613 6.50576C30.635 6.4712 30.6599 6.43664 30.6848 6.40208C30.9121 6.09249 31.2626 5.62018 31.8976 5.27458C32.9476 4.70291 34.0123 4.89011 34.3848 4.96211C34.7558 5.03267 35.5858 5.20258 36.2986 5.90097C36.9878 6.57632 37.1755 7.35822 37.2562 7.71821C37.3838 8.28844 37.3192 8.72043 37.3192 9.09627V21.8746" fill="white"/>
    <path d="M53.3201 21.8401H51.2802V17.3041C51.2802 16.443 51.2186 15.9189 51.0954 15.7317C50.9605 15.5215 50.6452 15.4178 50.151 15.4178H50.0337C49.538 15.4178 49.2242 15.5215 49.0893 15.7317C48.9646 15.9189 48.903 16.443 48.903 17.3041V21.8401H46.8631V17.3041C46.8631 16.443 46.8015 15.9189 46.6784 15.7317C46.5434 15.5215 46.2281 15.4178 45.7339 15.4178H45.6166C45.121 15.4178 44.8071 15.5215 44.6707 15.7317C44.5476 15.9189 44.486 16.443 44.486 17.3041V21.8401H42.4461V16.9729C42.4461 15.8915 42.581 15.1413 42.8508 14.7223C43.2556 14.093 44.0533 13.7776 45.2456 13.7776H46.1548C46.5933 13.7776 46.9423 13.8309 47.2004 13.936C47.4585 14.0412 47.6888 14.2197 47.8926 14.4732C48.3194 14.0095 48.9089 13.7776 49.6627 13.7776H50.522C51.7128 13.7776 52.5121 14.093 52.9153 14.7223C53.1866 15.1413 53.3201 15.8858 53.3201 16.9571" fill="white"/>
    <path d="M59.2887 17.0233V16.5424C59.2887 15.7922 58.9236 15.4178 58.1932 15.4178H58.0246C57.5187 15.4178 57.1872 15.5603 57.0303 15.8483C56.9174 16.0355 56.8441 16.4704 56.8103 17.1558H59.1714C59.2491 17.1558 59.2887 17.1112 59.2887 17.0233ZM61.3961 20.6809C61.0485 21.1345 60.6555 21.457 60.217 21.65C59.7785 21.8429 59.2271 21.9394 58.5643 21.9394H57.7548C56.7883 21.9394 56.0698 21.7076 55.5976 21.2439C55.2603 20.9242 55.0271 20.511 54.8966 20.0026C54.7675 19.4958 54.703 18.783 54.703 17.8672C54.703 16.9513 54.7675 16.2371 54.8966 15.7231C55.0271 15.2104 55.2603 14.7943 55.5976 14.4732C56.0698 14.0095 56.7883 13.7776 57.7548 13.7776H58.4132C59.2887 13.7776 59.9912 13.9994 60.5191 14.44C61.0485 14.8821 61.3125 15.556 61.3125 16.4603V17.2221C61.3125 17.7189 61.2025 18.0846 60.984 18.3222C60.764 18.5598 60.3622 18.6779 59.7785 18.6779H56.8103C56.8441 19.2409 56.9233 19.6383 57.0464 19.8702C57.2034 20.1567 57.5421 20.3007 58.0583 20.3007H58.5643C59.1934 20.3007 59.7331 20.0473 60.1833 19.539" fill="white"/>
    <path d="M66.7414 15.4178H65.9319C65.4377 15.4178 65.1224 15.5229 64.9875 15.7317C64.8643 15.9189 64.8027 16.443 64.8027 17.3041V21.8401H62.7614V16.9729C62.7614 15.8915 62.8978 15.1413 63.1661 14.7223C63.5723 14.093 64.3701 13.7776 65.5609 13.7776H66.7414" fill="white"/>
    <path d="M70.9737 21.84H70.2991C69.4104 21.84 68.7754 21.6644 68.3942 21.3101C68.0114 20.9573 67.8208 20.3727 67.8208 19.5563V9.73853H69.8606V18.9428C69.8606 19.4727 69.9046 19.8039 69.9956 19.9364C70.1187 20.1135 70.3431 20.2014 70.6687 20.2014H70.9737" fill="white"/>
    <path d="M74.4126 21.84H72.3727V13.9101H74.4126V21.84ZM74.1765 11.0964C74.3892 11.3052 74.4962 11.5659 74.4962 11.874C74.4962 12.1836 74.3892 12.4457 74.1765 12.6602C73.9624 12.8762 73.6984 12.9842 73.3832 12.9842C73.0693 12.9842 72.8024 12.8762 72.5824 12.6602C72.3639 12.4457 72.254 12.1836 72.254 11.874C72.254 11.5659 72.3639 11.3052 72.5824 11.0964C72.8024 10.8862 73.0693 10.7811 73.3832 10.7811C73.6984 10.7811 73.9624 10.8862 74.1765 11.0964Z" fill="white"/>
    <path d="M82.8083 21.8401H80.7684V17.3041C80.7684 16.443 80.7068 15.9189 80.5821 15.7317C80.4472 15.5215 80.1334 15.4178 79.6392 15.4178H79.4192C78.925 15.4178 78.6097 15.5215 78.4748 15.7317C78.3516 15.9189 78.29 16.443 78.29 17.3041V21.8401H76.2501V16.9729C76.2501 15.8915 76.385 15.1413 76.6549 14.7223C77.0596 14.093 77.8574 13.7776 79.0482 13.7776H80.0102C81.201 13.7776 81.9988 14.093 82.4035 14.7223C82.6734 15.1413 82.8083 15.8858 82.8083 16.9571" fill="white"/>
    <path d="M88.7769 17.0233V16.5424C88.7769 15.7922 88.4103 15.4178 87.6814 15.4178H87.5128C87.0068 15.4178 86.6739 15.5603 86.517 15.8483C86.4056 16.0355 86.3323 16.4704 86.2985 17.1558H88.6596C88.7373 17.1558 88.7769 17.1112 88.7769 17.0233ZM90.8842 20.6809C90.5367 21.1345 90.1422 21.457 89.7037 21.65C89.2667 21.8429 88.7153 21.9394 88.0525 21.9394H87.2429C86.2765 21.9394 85.5565 21.7076 85.0843 21.2439C84.747 20.9242 84.5138 20.511 84.3848 20.0026C84.2557 19.4958 84.1912 18.783 84.1912 17.8672C84.1912 16.9513 84.2557 16.2371 84.3848 15.7231C84.5138 15.2104 84.747 14.7943 85.0843 14.4732C85.5565 14.0095 86.2765 13.7776 87.2429 13.7776H87.8999C88.7769 13.7776 89.4793 13.9994 90.0073 14.44C90.5367 14.8821 90.8007 15.556 90.8007 16.4603V17.2221C90.8007 17.7189 90.6907 18.0846 90.4722 18.3222C90.2522 18.5598 89.8489 18.6779 89.2667 18.6779H86.2985C86.3323 19.2409 86.4114 19.6383 86.5346 19.8702C86.6915 20.1567 87.0288 20.3007 87.5465 20.3007H88.0525C88.6816 20.3007 89.2212 20.0473 89.67 19.539" fill="white"/>
    <path d="M97.9997 19.6887C97.9997 20.3727 97.7577 20.9185 97.2737 21.3274C96.7913 21.7349 96.0712 21.9394 95.1165 21.9394H94.6443C93.9697 21.9394 93.4535 21.8674 93.0928 21.7249C92.7335 21.5809 92.3346 21.2785 91.8961 20.8134L92.9916 19.5231C93.2731 19.8327 93.5254 20.0386 93.7512 20.1438C93.9756 20.2489 94.2792 20.3007 94.6604 20.3007H95.0828C95.7237 20.3007 96.0434 20.053 96.0434 19.5563C96.0434 19.4022 96.036 19.2827 96.0184 19.1991C96.0023 19.1171 95.9539 19.035 95.8747 18.9515C95.797 18.8694 95.6841 18.806 95.5374 18.7614L93.8509 18.2646C93.2453 18.0875 92.8097 17.8585 92.5458 17.5777C92.2803 17.2955 92.1483 16.8851 92.1483 16.3437V15.9966C92.1483 15.268 92.3874 14.7165 92.8655 14.3407C93.3435 13.9663 93.9536 13.7776 94.6942 13.7776H95.4025C96.0096 13.7776 96.4818 13.8496 96.8191 13.9936C97.1564 14.1376 97.5157 14.4242 97.8985 14.8547L96.7003 16.096C96.4422 15.8195 96.234 15.6381 96.0771 15.5503C95.9202 15.461 95.7002 15.4178 95.4201 15.4178H94.8467C94.3408 15.4178 94.087 15.6107 94.087 15.9966C94.087 16.1954 94.1178 16.3437 94.1809 16.443C94.2425 16.5424 94.3847 16.6259 94.6106 16.6922L96.2971 17.1889C96.9027 17.3646 97.3383 17.5965 97.6022 17.8844C97.8662 18.171 97.9997 18.5843 97.9997 19.1257" fill="white"/>
    </g>
    <defs>
    <clipPath id="clip0_3870_11911">
    <rect width="98" height="22" fill="white"/>
    </clipPath>
    </defs>
    </svg>