<svg width="39" height="22" viewBox="0 0 39 22" fill="none" xmlns="http://www.w3.org/2000/svg">
    <g clip-path="url(#clip0_621_62757)">
    <path d="M0 22.0009V8.03171C0.0762575 7.24549 0.288898 6.11799 0.893092 4.89977C1.50022 3.67868 2.23493 2.90109 2.48717 2.64478C2.88898 2.23871 3.62663 1.572 4.72063 1.01617C4.9626 0.893773 6.01261 0.372504 7.52749 0.139228C8.12729 0.04707 9.25355 -0.117087 10.5895 0.139228C12.6822 0.54098 14.0871 1.74624 14.7368 2.39422C14.3716 2.31359 13.8143 2.28911 13.1412 2.3323C11.6542 2.4259 10.6174 2.96157 10.1437 3.27117C9.63924 3.60092 8.8796 4.17403 8.293 5.15033C7.768 6.02727 7.52749 6.8423 7.46443 8.15699V22.0009" fill="white"/>
    <path d="M10.1437 15.1715C10.0587 14.6719 10.0161 14.165 10.0161 13.6581V8.40655C10.0235 8.07824 10.0836 7.38273 10.5265 6.65267C11.0837 5.73253 11.8976 5.33654 12.1851 5.21126C13.1163 4.80807 13.9419 4.91318 14.2895 4.96214C14.6766 5.01542 15.4348 5.13062 16.1402 5.71381C16.2516 5.80597 16.7722 6.24804 17.0963 7.0285C17.2738 7.45473 17.3324 7.83489 17.3515 8.09408V13.6106C17.3515 14.3824 17.5187 15.1471 17.8545 15.844C17.8574 15.8498 17.8604 15.8555 17.8618 15.8613C18.4235 17.019 19.17 17.7332 19.4574 17.991C19.9413 18.4244 20.9165 19.2783 22.4564 19.5563C23.4433 19.7362 24.2704 19.6066 24.7514 19.4943C24.4317 19.7694 23.9624 20.1366 23.3495 20.4966C22.5385 20.9732 20.5631 22.0964 17.9264 21.8746C15.0785 21.6341 13.2131 19.9724 12.5033 19.2438C10.9928 17.69 10.3373 15.9837 10.1437 15.1715Z" fill="white"/>
    <path d="M20.0308 13.2045V7.71821C20.066 7.11343 20.1892 6.21488 20.6057 5.21122C21.3037 3.53078 22.4153 2.5588 22.9022 2.14265C24.5872 0.701235 26.347 0.295162 26.7928 0.201564C27.1711 0.120926 28.8239 -0.198748 30.877 0.325402C32.8098 0.820752 34.1135 1.81433 34.7675 2.3932C34.3921 2.3356 33.8642 2.28664 33.2365 2.33128C31.7172 2.4364 30.6584 3.01527 30.4297 3.14487C29.1905 3.84469 28.5335 4.77203 28.3253 5.08739C28.1068 5.41714 27.6668 6.09681 27.4952 7.09183C27.4204 7.52238 27.4175 7.89245 27.4322 8.15597L27.3676 13.6063C27.3706 13.9533 27.3295 14.8187 26.7297 15.6107C25.844 16.7785 24.4215 16.888 23.9229 16.9254C23.4111 16.9657 22.1088 17.0075 21.116 16.0484C20.5646 15.5171 20.3006 14.9498 20.2229 14.6085C20.0953 14.1506 20.0308 13.6797 20.0308 13.2045Z" fill="white"/>
    <path d="M29.9193 21.8746V8.79099C29.9193 7.97885 30.151 7.17822 30.613 6.50576C30.635 6.4712 30.6599 6.43664 30.6848 6.40208C30.9121 6.09249 31.2626 5.62018 31.8976 5.27458C32.9476 4.70291 34.0123 4.89011 34.3848 4.96211C34.7558 5.03267 35.5858 5.20258 36.2986 5.90097C36.9878 6.57632 37.1755 7.35822 37.2562 7.71821C37.3838 8.28844 37.3192 8.72043 37.3192 9.09627V21.8746" fill="white"/>
    </g>
    <defs>
    <clipPath id="clip0_621_62757">
    <rect width="39" height="22" fill="white"/>
    </clipPath>
    </defs>
    </svg>
    