<svg width="21" height="20" viewBox="0 0 21 20" fill="none" xmlns="http://www.w3.org/2000/svg">
<path d="M20.5131 9.99601C20.5131 15.4812 15.9243 19.9226 10.2597 19.9226C4.59429 19.9226 0 15.4812 0 9.99601C0 4.51082 4.59429 0.0651474 10.2597 0.0651474C15.9244 0.0651474 20.5131 4.51082 20.5131 9.99601Z" fill="#BED600"/>
<path d="M9.51227 4.81362C7.8967 4.81362 6.84863 4.90007 6.08994 5.17271C4.815 5.65348 3.93453 6.66112 3.93453 7.98532C3.93453 9.08823 4.46504 9.88697 6.00035 10.8056C7.6385 11.767 7.9653 12.0847 7.9653 12.6639C7.9653 13.2979 7.32363 14.0195 5.67261 14.0195C5.09636 14.0195 4.2284 13.9423 3.67379 13.811L3.40915 13.7464C3.26153 14.1295 2.9264 15.0358 2.82422 15.3646L3.08626 15.4392C3.58514 15.5932 4.76912 15.7135 5.61739 15.7135C8.4393 15.7135 10.123 14.0632 10.123 12.335C10.123 11.273 9.62501 10.466 7.94171 9.44921C7.09735 8.94644 6.66706 8.62042 6.40575 8.36802C6.19393 8.10455 6.17049 7.90847 6.17049 7.70133C6.17049 7.50357 6.21593 7.27569 6.3506 7.10875C6.49628 6.90238 6.76345 6.77089 7.12506 6.66238C7.49673 6.54301 8.18537 6.53986 9.2579 6.53986H10.2565L10.9696 4.81369H9.51227V4.81362ZM17.0594 4.81362H12.041L11.3279 6.53972H12.9913C14.1105 6.53972 14.3258 6.51639 14.6069 6.51639C14.2011 7.41495 11.7557 13.4475 11.7557 13.4475H13.8253C13.8253 13.4475 16.9214 5.93804 17.2495 5.15071C17.3404 4.97502 17.2953 4.81362 17.0594 4.81362Z" fill="white"/>
</svg>
