<svg width="42" height="34" viewBox="0 0 42 34" fill="none" xmlns="http://www.w3.org/2000/svg">
<path d="M17.928 0.767996L11.592 23.808L9.48 15.168C12.232 15.168 14.472 15.968 16.2 17.568C17.928 19.168 18.792 21.376 18.792 24.192C18.792 26.944 17.896 29.184 16.104 30.912C14.376 32.576 12.2 33.408 9.576 33.408C6.888 33.408 4.648 32.576 2.856 30.912C1.128 29.184 0.264 26.944 0.264 24.192C0.264 23.36 0.328 22.56 0.456 21.792C0.584 20.96 0.84 20 1.224 18.912C1.608 17.824 2.152 16.384 2.856 14.592L8.424 0.767996H17.928ZM40.584 0.767996L34.248 23.808L32.136 15.168C34.888 15.168 37.128 15.968 38.856 17.568C40.584 19.168 41.448 21.376 41.448 24.192C41.448 26.944 40.552 29.184 38.76 30.912C37.032 32.576 34.856 33.408 32.232 33.408C29.544 33.408 27.304 32.576 25.512 30.912C23.784 29.184 22.92 26.944 22.92 24.192C22.92 23.36 22.984 22.56 23.112 21.792C23.24 20.96 23.496 20 23.88 18.912C24.264 17.824 24.808 16.384 25.512 14.592L31.08 0.767996H40.584Z" fill="#235EF5"/>
</svg>
