<svg width="14" height="14" viewBox="0 0 14 14" fill="none" xmlns="http://www.w3.org/2000/svg">
<path d="M13.5625 8.66693C13.321 8.66693 13.125 8.47093 13.125 8.22943C13.125 6.54068 11.7512 5.16693 10.0625 5.16693H5.83333V7.06276C5.83333 7.44776 5.37017 7.64259 5.09367 7.37893L1.88533 4.31643C1.799 4.23418 1.75 4.11984 1.75 4.00026C1.75 3.88068 1.799 3.76634 1.88533 3.68409L5.09367 0.621594C5.37133 0.356761 5.83333 0.553927 5.83333 0.937761V2.83359H9.47917C11.9717 2.83359 14 4.86184 14 7.35443V8.22943C14 8.47093 13.804 8.66693 13.5625 8.66693Z" fill="#235EF5"/>
<path d="M8.16667 12.8961V11.0003H4.52083C2.02825 11.0003 0 8.97201 0 6.47943V5.60443C0 5.36293 0.196 5.16693 0.4375 5.16693C0.679 5.16693 0.875 5.36293 0.875 5.60443C0.875 7.29318 2.24875 8.66693 3.9375 8.66693H8.16667V6.7711C8.16667 6.38785 8.62808 6.18893 8.90633 6.45493L12.1147 9.51743C12.201 9.59968 12.25 9.71402 12.25 9.8336C12.25 9.95318 12.201 10.0675 12.1147 10.1498L8.90633 13.2123C8.62808 13.4771 8.16667 13.2799 8.16667 12.8961Z" fill="#235EF5"/>
</svg>
