<svg width="5" height="34" viewBox="0 0 5 34" fill="current" xmlns="http://www.w3.org/2000/svg">
<path fill-rule="evenodd" clip-rule="evenodd" d="M5 2.50006C5 3.88077 3.88071 5.00006 2.5 5.00006C1.11929 5.00006 0 3.88077 0 2.50006C0 1.11935 1.11929 6.10352e-05 2.5 6.10352e-05C3.88071 6.10352e-05 5 1.11935 5 2.50006ZM2.5 29.0001H2L2 5.00006H2.5H3L3 29.0001H2.5ZM2.5 29.0001C3.88071 29.0001 5 30.1193 5 31.5001C5 32.8808 3.88071 34.0001 2.5 34.0001C1.11929 34.0001 0 32.8808 0 31.5001C0 30.1193 1.11929 29.0001 2.5 29.0001Z" />
</svg>
