<svg width="16" height="16" viewBox="0 0 16 16" fill="#333333" xmlns="http://www.w3.org/2000/svg">
<path d="M8.00003 8.875C5.66812 8.875 1 10.0431 1 12.375V15H15V12.375C15 10.0431 10.3319 8.875 8.00003 8.875ZM13.3375 13.3375H2.66249V12.375C2.66249 11.8106 5.39688 10.5375 7.99999 10.5375C10.6031 10.5375 13.3375 11.8106 13.3375 12.375V13.3375H13.3375Z" />
<path d="M8.00003 8.00003C9.9338 8.00003 11.5 6.42941 11.5 4.50004C11.5 2.56627 9.93376 1 8.00003 1C6.06631 1 4.5 2.56627 4.5 4.49999C4.5 6.42937 6.06627 8.00003 8.00003 8.00003ZM8.00003 2.66249C9.01505 2.66249 9.83754 3.48498 9.83754 4.49999C9.83754 5.51501 9.01505 6.3375 8.00003 6.3375C6.98502 6.3375 6.16253 5.51501 6.16253 4.49999C6.16253 3.48502 6.98502 2.66249 8.00003 2.66249Z" />
</svg>
