<svg width="24" height="24" viewBox="0 0 24 24" fill="none" xmlns="http://www.w3.org/2000/svg">
<path fill-rule="evenodd" clip-rule="evenodd" d="M4.3912 4.30434C4.07986 4.30434 3.78127 4.42802 3.56112 4.64818C3.34096 4.86833 3.21729 5.16692 3.21729 5.47826V18.5217C3.21729 18.8331 3.34096 19.1317 3.56112 19.3518C3.78127 19.572 4.07986 19.6956 4.3912 19.6956H19.6086C19.9199 19.6956 20.2185 19.572 20.4387 19.3518C20.6588 19.1317 20.7825 18.8331 20.7825 18.5217V5.47826C20.7825 5.16692 20.6588 4.86833 20.4387 4.64818C20.2185 4.42802 19.9199 4.30434 19.6086 4.30434H4.3912ZM2.1469 3.23396C2.74213 2.63874 3.54942 2.30434 4.3912 2.30434H19.6086C20.4504 2.30434 21.2577 2.63874 21.8529 3.23396C22.4481 3.82919 22.7825 4.63648 22.7825 5.47826V18.5217C22.7825 19.3635 22.4481 20.1708 21.8529 20.766C21.2577 21.3613 20.4504 21.6956 19.6086 21.6956H4.3912C3.54942 21.6956 2.74213 21.3613 2.1469 20.766C1.55168 20.1708 1.21729 19.3635 1.21729 18.5217V5.47826C1.21729 4.63648 1.55168 3.82919 2.1469 3.23396Z" />
<path fill-rule="evenodd" clip-rule="evenodd" d="M2.85401 3.94107C2.44632 4.34876 2.21729 4.9017 2.21729 5.47826V18.5217C2.21729 19.0983 2.44632 19.6512 2.85401 20.0589C3.2617 20.4666 3.81464 20.6956 4.3912 20.6956H19.6086C20.1851 20.6956 20.7381 20.4666 21.1458 20.0589C21.5535 19.6512 21.7825 19.0983 21.7825 18.5217V5.47826C21.7825 4.9017 21.5535 4.34876 21.1458 3.94107C20.7381 3.53338 20.1851 3.30434 19.6086 3.30434H4.3912C3.81464 3.30434 3.2617 3.53338 2.85401 3.94107ZM5.56519 7.65218C5.56519 7.09989 6.0129 6.65218 6.56519 6.65218H17.4348C17.987 6.65218 18.4347 7.09989 18.4347 7.65218C18.4347 8.20446 17.987 8.65218 17.4348 8.65218H6.56519C6.0129 8.65218 5.56519 8.20446 5.56519 7.65218ZM5.56519 12C5.56519 11.4477 6.0129 11 6.56519 11H17.4348C17.987 11 18.4347 11.4477 18.4347 12C18.4347 12.5523 17.987 13 17.4348 13H6.56519C6.0129 13 5.56519 12.5523 5.56519 12ZM6.56519 15.3478C6.0129 15.3478 5.56519 15.7955 5.56519 16.3478C5.56519 16.9001 6.0129 17.3478 6.56519 17.3478H17.4348C17.987 17.3478 18.4347 16.9001 18.4347 16.3478C18.4347 15.7955 17.987 15.3478 17.4348 15.3478H6.56519Z" />
</svg>
