<svg width="24" height="24" viewBox="0 0 24 24" fill="none" xmlns="http://www.w3.org/2000/svg">
<path d="M1.09259 9.81818C1.09139 9.93022 1.09082 10.0437 1.09082 10.1585V16.0233C1.09082 17.2412 1.15466 18.2943 1.35118 19.1786C1.55045 20.0753 1.90037 20.8637 2.51825 21.4816C3.13614 22.0995 3.92461 22.4495 4.82128 22.6487C5.70556 22.8453 6.75871 22.9091 7.97664 22.9091H16.0232C17.2411 22.9091 18.2942 22.8453 19.1785 22.6487C20.0753 22.4495 20.8637 22.0995 21.4815 21.4816C22.0994 20.8637 22.4494 20.0753 22.6486 19.1786C22.8452 18.2943 22.909 17.2412 22.909 16.0233V10.1585C22.909 10.0437 22.9085 9.93022 22.9073 9.81818H1.09259Z" />
<path d="M4.36354 3.65136V2.18182C4.36354 1.57933 4.85195 1.09091 5.45445 1.09091C6.05694 1.09091 6.54536 1.57933 6.54536 2.18182V3.31066C6.99386 3.28372 7.47105 3.27273 7.97663 3.27273H16.0232C16.5288 3.27273 17.006 3.28372 17.4544 3.31066V2.18182C17.4544 1.57933 17.9428 1.09091 18.5453 1.09091C19.1479 1.09091 19.6363 1.57933 19.6363 2.18182V3.65136C20.3444 3.86219 20.9711 4.18974 21.4815 4.70016C22.0994 5.31805 22.4494 6.10652 22.6486 7.00319C22.6935 7.20543 22.7316 7.4165 22.7635 7.63636H1.23633C1.26822 7.4165 1.30622 7.20543 1.35117 7.00319C1.55044 6.10652 1.90036 5.31805 2.51824 4.70016C3.02866 4.18974 3.65548 3.86219 4.36354 3.65136Z" />
</svg>
