<svg width="24" height="24" viewBox="0 0 24 24"  xmlns="http://www.w3.org/2000/svg">
<path d="M12.0244 23C7.21778 23 2 22.433 2 19.9151C2 16.5833 5.57556 15.4696 8.59444 14.449C8.81222 14.3807 9.72727 13.8333 9.72727 12.4079C8.22949 10.979 6.63889 8.64391 6.63889 6.35285C6.63889 2.83746 9.10222 1 12 1C14.8978 1 17.3611 2.83746 17.3611 6.35285C17.3611 8.64391 15.7705 10.979 14.2727 12.4079C14.2727 13.8333 15.1878 14.3807 15.4056 14.449C18.4244 15.4696 22 16.5833 22 19.9151C22 22.433 16.7822 23 11.9756 23"  stroke-width="2"/>
</svg>
