<svg width="24" height="24" viewBox="0 0 24 24" fill="none" xmlns="http://www.w3.org/2000/svg">
<path d="M2.18164 9.818C2.18164 10.8208 2.37916 11.8138 2.76292 12.7403C3.14669 13.6668 3.70918 14.5086 4.41828 15.2177C5.12738 15.9268 5.96921 16.4893 6.89569 16.8731C7.82218 17.2568 8.81518 17.4544 9.818 17.4544C10.8208 17.4544 11.8138 17.2568 12.7403 16.8731C13.6668 16.4893 14.5086 15.9268 15.2177 15.2177C15.9268 14.5086 16.4893 13.6668 16.8731 12.7403C17.2568 11.8138 17.4544 10.8208 17.4544 9.818C17.4544 8.81518 17.2568 7.82218 16.8731 6.89569C16.4893 5.96921 15.9268 5.12738 15.2177 4.41828C14.5086 3.70918 13.6668 3.14669 12.7403 2.76292C11.8138 2.37916 10.8208 2.18164 9.818 2.18164C8.81518 2.18164 7.82218 2.37916 6.89569 2.76292C5.96921 3.14669 5.12738 3.70918 4.41828 4.41828C3.70918 5.12738 3.14669 5.96921 2.76292 6.89569C2.37916 7.82218 2.18164 8.81518 2.18164 9.818Z" stroke-width="2" stroke-linecap="round" stroke-linejoin="round"/>
<path d="M21.8189 21.8179L15.2734 15.2725"  stroke-width="2" stroke-linecap="round" stroke-linejoin="round"/>
</svg>
