<svg width="16" height="16" viewBox="0 0 16 16" fill="none" xmlns="http://www.w3.org/2000/svg">
<g clip-path="url(#clip0_3463_47242)">
<path d="M2 5.99996C2 5.64634 2.14048 5.3072 2.39052 5.05715C2.64057 4.8071 2.97971 4.66663 3.33333 4.66663H12.6667C13.0203 4.66663 13.3594 4.8071 13.6095 5.05715C13.8595 5.3072 14 5.64634 14 5.99996V12C14 12.3536 13.8595 12.6927 13.6095 12.9428C13.3594 13.1928 13.0203 13.3333 12.6667 13.3333H3.33333C2.97971 13.3333 2.64057 13.1928 2.39052 12.9428C2.14048 12.6927 2 12.3536 2 12V5.99996Z" fill="#396EF6" stroke="#396EF6" stroke-linecap="round" stroke-linejoin="round"/>
<path d="M5.33325 4.66667V3.33333C5.33325 2.97971 5.47373 2.64057 5.72378 2.39052C5.97382 2.14048 6.31296 2 6.66659 2H9.33325C9.68687 2 10.026 2.14048 10.2761 2.39052C10.5261 2.64057 10.6666 2.97971 10.6666 3.33333V4.66667" stroke="#396EF6" stroke-linecap="round" stroke-linejoin="round"/>
<path d="M8 8V8.00667" stroke="white" stroke-linecap="round" stroke-linejoin="round"/>
<path d="M2 8.66663C3.86105 9.60442 5.91602 10.0929 8 10.0929C10.084 10.0929 12.1389 9.60442 14 8.66663" stroke="white" stroke-linecap="round" stroke-linejoin="round"/>
</g>
<defs>
<clipPath id="clip0_3463_47242">
<rect width="16" height="16" fill="white"/>
</clipPath>
</defs>
</svg>
