<svg width="13" height="14" viewBox="0 0 13 14" fill="none" xmlns="http://www.w3.org/2000/svg">
<path d="M11.6667 6.33328C11.5036 5.16009 10.9594 4.07305 10.1178 3.23961C9.27614 2.40617 8.18384 1.87256 7.00911 1.72098C5.83439 1.5694 4.64241 1.80827 3.6168 2.40078C2.59119 2.99329 1.78883 3.90657 1.33333 4.99995M1 2.33328V4.99995H3.66667M1 7.66665C1.16304 8.83983 1.70729 9.92687 2.54891 10.7603C3.39053 11.5938 4.48283 12.1274 5.65755 12.2789C6.83228 12.4305 8.02425 12.1917 9.04987 11.5991C10.0755 11.0066 10.8778 10.0934 11.3333 8.99998M11.6667 11.6666V8.99998H9" stroke="#396EF6" stroke-width="2" stroke-linecap="round" stroke-linejoin="round"/>
</svg>
