<svg width="16" height="16" viewBox="0 0 16 16" fill="none" xmlns="http://www.w3.org/2000/svg">
<g opacity="0.5">
<path d="M13.3334 7.33328C13.1704 6.16009 12.6261 5.07305 11.7845 4.23961C10.9429 3.40617 9.85059 2.87256 8.67586 2.72098C7.50114 2.5694 6.30916 2.80827 5.28355 3.40078C4.25794 3.99329 3.45558 4.90657 3.00008 5.99995M2.66675 3.33328V5.99995H5.33341M2.66675 8.66665C2.82979 9.83983 3.37404 10.9269 4.21566 11.7603C5.05728 12.5938 6.14958 13.1274 7.3243 13.2789C8.49902 13.4305 9.691 13.1917 10.7166 12.5991C11.7422 12.0066 12.5446 11.0934 13.0001 9.99998M13.3334 12.6666V9.99998H10.6667" stroke="#333333" stroke-width="2" stroke-linecap="round" stroke-linejoin="round"/>
<path d="M14 4L2 12" stroke="#A1A1A1" stroke-linecap="round"/>
</g>
</svg>
