<svg width="16" height="16" viewBox="0 0 16 16" fill="none" xmlns="http://www.w3.org/2000/svg">
<g opacity="0.5">
<path d="M8.75084 0H7.24916C6.56034 0 6 0.615919 6 1.37298V3H6.92525V1.37298C6.92525 1.17665 7.07054 1.017 7.24913 1.017H8.75081C8.92943 1.017 9.07472 1.17669 9.07472 1.37298V3H10V1.37298C10 0.615919 9.43963 0 8.75084 0Z" fill="#333333"/>
<path d="M12.0605 3.04262L3.93946 3C3.42144 3 3 3.47942 3 4.06869V13.8887C3 14.478 3.42144 14.9574 3.93946 14.9574L12.0605 15C12.5786 15 13 14.5206 13 13.9313V4.11135C13 3.52204 12.5786 3.04262 12.0605 3.04262Z" fill="#333333"/>
<path d="M5.11236 15.0028C5.07463 15.0028 5.03723 15.0017 5 15V15.605C5 15.8232 5.22387 16 5.5 16C5.77613 16 6 15.8232 6 15.605V15.0028H5.11236Z" fill="#333333"/>
<path d="M10.8877 15.0028H10V15.605C10 15.8232 10.2239 16 10.5 16C10.7761 16 11 15.8232 11 15.605V15C10.9628 15.0017 10.9254 15.0028 10.8877 15.0028Z" fill="#333333"/>
<path d="M14 4L2 12" stroke="#A1A1A1" stroke-linecap="round"/>
<path d="M14 4L2 12" stroke="#A1A1A1" stroke-linecap="round"/>
</g>
</svg>
