<svg width="17" height="16" viewBox="0 0 17 16" fill="none" xmlns="http://www.w3.org/2000/svg">
<path d="M9.08409 0H7.58241C6.89359 0 6.33325 0.615919 6.33325 1.37298V3H7.2585V1.37298C7.2585 1.17665 7.40379 1.017 7.58238 1.017H9.08406C9.26268 1.017 9.40797 1.17669 9.40797 1.37298V3H10.3333V1.37298C10.3333 0.615919 9.77288 0 9.08409 0Z" fill="#396EF6"/>
<path d="M12.3938 3.04262L4.27271 3C3.7547 3 3.33325 3.47942 3.33325 4.06869V13.8887C3.33325 14.478 3.7547 14.9574 4.27271 14.9574L12.3938 15C12.9118 15 13.3333 14.5206 13.3333 13.9313V4.11135C13.3333 3.52204 12.9118 3.04262 12.3938 3.04262Z" fill="#396EF6"/>
<path d="M5.44561 15.0028C5.40789 15.0028 5.37049 15.0017 5.33325 15V15.605C5.33325 15.8232 5.55712 16 5.83325 16C6.10939 16 6.33325 15.8232 6.33325 15.605V15.0028H5.44561Z" fill="#396EF6"/>
<path d="M11.2209 15.0028H10.3333V15.605C10.3333 15.8232 10.5571 16 10.8333 16C11.1094 16 11.3333 15.8232 11.3333 15.605V15C11.296 15.0017 11.2587 15.0028 11.2209 15.0028Z" fill="#396EF6"/>
</svg>
