<svg width="17" height="16" viewBox="0 0 17 16" fill="none" xmlns="http://www.w3.org/2000/svg">
<path fill-rule="evenodd" clip-rule="evenodd" d="M3.6665 3.33333V14L5.6665 12.6667L6.99984 14L8.33317 12.6667L9.6665 14L10.9998 12.6667L12.9998 14V3.33333C12.9998 2.97971 12.8594 2.64057 12.6093 2.39052C12.3593 2.14048 12.0201 2 11.6665 2H4.99984C4.64622 2 4.30708 2.14048 4.05703 2.39052C3.80698 2.64057 3.6665 2.97971 3.6665 3.33333ZM8.19683 5.86366C8.48973 5.57077 8.48973 5.0959 8.19683 4.803C7.90394 4.51011 7.42907 4.51011 7.13617 4.803L5.80284 6.13634L5.27251 6.66667L5.80284 7.197L7.13617 8.53033C7.42907 8.82322 7.90394 8.82322 8.19683 8.53033C8.48973 8.23744 8.48973 7.76256 8.19683 7.46967L8.14383 7.41667H8.99984C9.15455 7.41667 9.30292 7.47812 9.41232 7.58752C9.52171 7.69692 9.58317 7.84529 9.58317 8V9.33333C9.58317 9.74755 9.91896 10.0833 10.3332 10.0833C10.7474 10.0833 11.0832 9.74755 11.0832 9.33333V8C11.0832 7.44746 10.8637 6.91756 10.473 6.52686C10.0823 6.13616 9.55237 5.91667 8.99984 5.91667H8.14383L8.19683 5.86366Z" fill="#396EF6"/>
</svg>
