<svg width="16" height="16" viewBox="0 0 16 16" fill="none" xmlns="http://www.w3.org/2000/svg">
<g opacity="0.5">
<path fill-rule="evenodd" clip-rule="evenodd" d="M2.75024 2.75056V14.7492L4.99999 13.2494L6.49982 14.7492L7.99966 13.2494L9.49949 14.7492L10.9993 13.2494L13.2491 14.7492V2.75056C13.2491 2.35278 13.0911 1.9713 12.8098 1.69002C12.5285 1.40875 12.147 1.25073 11.7492 1.25073H4.25008C3.8523 1.25073 3.47081 1.40875 3.18953 1.69002C2.90826 1.9713 2.75024 2.35278 2.75024 2.75056ZM7.60366 5.35386C7.79892 5.1586 7.79892 4.84202 7.60366 4.64675C7.4084 4.45149 7.09182 4.45149 6.89655 4.64675L5.39672 6.14659L5.04317 6.50014L5.39672 6.85369L6.89655 8.35352C7.09182 8.54879 7.4084 8.54879 7.60366 8.35352C7.79892 8.15826 7.79892 7.84168 7.60366 7.64642L6.95738 7.00014H8.74994C9.01511 7.00014 9.26942 7.10548 9.45693 7.29298C9.64443 7.48049 9.74977 7.7348 9.74977 7.99997V9.4998C9.74977 9.77595 9.97363 9.9998 10.2498 9.9998C10.5259 9.9998 10.7498 9.77595 10.7498 9.4998V7.99997C10.7498 7.46958 10.5391 6.96092 10.164 6.58588C9.78899 6.21084 9.28033 6.00014 8.74994 6.00014H6.95738L7.60366 5.35386Z" fill="#333333"/>
<path d="M14 4L2 12" stroke="#A1A1A1" stroke-linecap="round"/>
</g>
</svg>
