<svg width="16" height="16" viewBox="0 0 16 16" fill="none" xmlns="http://www.w3.org/2000/svg">
<g clip-path="url(#clip0_4374_1592)">
<path d="M6.66675 3.33333C6.66675 2.97971 6.80722 2.64057 7.05727 2.39052C7.30732 2.14048 7.64646 2 8.00008 2C8.3537 2 8.69284 2.14048 8.94289 2.39052C9.19294 2.64057 9.33341 2.97971 9.33341 3.33333C10.099 3.69535 10.7517 4.25888 11.2214 4.96353C11.6912 5.66818 11.9604 6.48738 12.0001 7.33333V9.33333C12.0503 9.7478 12.197 10.1447 12.4286 10.4921C12.6602 10.8395 12.9701 11.1276 13.3334 11.3333H2.66675C3.03004 11.1276 3.33995 10.8395 3.57154 10.4921C3.80312 10.1447 3.94991 9.7478 4.00008 9.33333V7.33333C4.03979 6.48738 4.30895 5.66818 4.77871 4.96353C5.24848 4.25888 5.90114 3.69535 6.66675 3.33333Z" stroke="#333333" stroke-linecap="round" stroke-linejoin="round"/>
<path d="M6 11.3333V12C6 12.5304 6.21071 13.0391 6.58579 13.4142C6.96086 13.7893 7.46957 14 8 14C8.53043 14 9.03914 13.7893 9.41421 13.4142C9.78929 13.0391 10 12.5304 10 12V11.3333" stroke="#333333" stroke-linecap="round" stroke-linejoin="round"/>
<path d="M13.9999 4.48467C13.5626 3.5335 12.9276 2.68646 12.1372 2" stroke="#333333" stroke-linecap="round" stroke-linejoin="round"/>
<path d="M2 4.48467C2.4369 3.53363 3.07143 2.6866 3.86133 2" stroke="#333333" stroke-linecap="round" stroke-linejoin="round"/>
</g>
<defs>
<clipPath id="clip0_4374_1592">
<rect width="16" height="16" fill="white"/>
</clipPath>
</defs>
</svg>
