<svg width="16" height="16" viewBox="0 0 16 16" fill="none" xmlns="http://www.w3.org/2000/svg">
<g clip-path="url(#clip0_3911_13914)">
<path d="M12.5 16H3.5C1.567 16 0 14.433 0 12.5V3.5C0 1.567 1.567 0 3.5 0H12.5C14.433 0 16 1.567 16 3.5V12.5C16 14.433 14.433 16 12.5 16Z" fill="#41479B"/>
<path d="M16 12.4997V11.7313L13.5182 10.1053H16V9.26318H9.26315V16H10.1052V10.8894L15.4469 14.3891C15.6361 14.0946 15.7821 13.7697 15.8766 13.4236" fill="#F5F5F5"/>
<path d="M0.235344 13.7639C0.320594 13.9839 0.427281 14.1932 0.553094 14.3891L5.89472 10.8894V16H6.73681V9.26318H0V10.1053H2.48184L0 11.7313V12.5C0 12.6346 0.007875 12.7673 0.0226562 12.8979" fill="#F5F5F5"/>
<path d="M0 3.61897V4.26869L2.48184 5.89475H0V6.73684H6.73684V0H5.89475V5.11062L0.553094 1.61094C0.3455 1.93416 0.189781 2.29381 0.0973125 2.67812" fill="#F5F5F5"/>
<path d="M15.76 2.22403C15.6756 2.00844 15.5704 1.80322 15.4469 1.61091L10.1052 5.11062V0H9.26315V6.73684H16V5.89475H13.5182L16 4.26869V3.5C16 3.36063 15.9916 3.22319 15.9757 3.08806" fill="#F5F5F5"/>
<path d="M9.26316 0H6.73684V6.73684H0V9.26316H6.73684V16H9.26316V9.26316H16V6.73684H9.26316V0Z" fill="#FF4B55"/>
<path d="M4.32484 10.1053L0.022644 12.8979C0.0568316 13.1998 0.129332 13.4902 0.235363 13.7638L5.87159 10.1052H4.32484V10.1053Z" fill="#FF4B55"/>
<path d="M10.7645 10.1053L15.8766 13.4236C15.9569 13.1293 16 12.8197 16 12.5V12.4996L12.3113 10.1052L10.7645 10.1053Z" fill="#FF4B55"/>
<path d="M5.05263 5.89473L0.0973125 2.6781C0.0338438 2.94173 0 3.21688 0 3.49998V3.61894L3.50588 5.89473H5.05263Z" fill="#FF4B55"/>
<path d="M11.652 5.89475L15.9757 3.08806C15.9404 2.78669 15.8669 2.497 15.76 2.22406L10.1053 5.89475H11.652Z" fill="#FF4B55"/>
</g>
<defs>
<clipPath id="clip0_3911_13914">
<rect width="16" height="16" fill="white"/>
</clipPath>
</defs>
</svg>
