<?xml version="1.0" standalone="no"?>
<!DOCTYPE svg PUBLIC "-//W3C//DTD SVG 20010904//EN"
 "http://www.w3.org/TR/2001/REC-SVG-20010904/DTD/svg10.dtd">
<svg version="1.0" xmlns="http://www.w3.org/2000/svg"
 width="1280.000000pt" height="1280.000000pt" viewBox="0 0 1280.000000 1280.000000"
 preserveAspectRatio="xMidYMid meet">
<metadata>
Created by potrace 1.14, written by Peter Selinger 2001-2017
</metadata>
<g transform="translate(0.000000,1280.000000) scale(0.100000,-0.100000)"
fill="#000000" stroke="none">
<path d="M3028 9914 c-2 -2 -31 -6 -64 -8 -70 -6 -127 -13 -209 -26 -33 -6
-71 -12 -85 -14 -63 -10 -112 -20 -205 -43 -55 -14 -107 -26 -115 -28 -24 -5
-183 -55 -205 -65 -11 -5 -67 -27 -125 -50 -104 -41 -360 -170 -380 -190 -3
-3 -30 -21 -60 -40 -63 -39 -258 -184 -310 -230 -277 -249 -480 -511 -643
-831 -41 -79 -82 -164 -91 -189 -10 -25 -23 -56 -29 -70 -6 -14 -11 -27 -12
-30 -1 -3 -4 -12 -8 -20 -8 -22 -59 -173 -62 -185 -8 -37 -18 -74 -26 -95 -4
-14 -10 -36 -13 -50 -2 -14 -11 -54 -19 -90 -9 -36 -18 -85 -21 -110 -3 -25
-10 -73 -15 -107 -5 -34 -8 -70 -6 -80 1 -10 -2 -26 -6 -35 -6 -10 -5 -19 1
-23 5 -3 6 -15 0 -29 -4 -12 -5 -29 0 -36 5 -7 5 -23 0 -35 -4 -11 -4 -28 1
-37 6 -10 6 -19 0 -22 -6 -4 -6 -18 -1 -36 5 -17 6 -30 2 -30 -8 0 -7 -84 1
-97 3 -5 2 -15 -3 -23 -5 -8 -5 -21 0 -30 5 -9 5 -22 0 -29 -4 -8 -4 -27 0
-42 5 -16 5 -29 0 -29 -5 0 -5 -13 0 -30 5 -17 5 -30 0 -30 -5 0 -5 -13 0 -30
5 -17 5 -30 0 -30 -5 0 -5 -13 0 -30 5 -17 5 -30 0 -30 -5 0 -5 -13 0 -30 5
-16 6 -30 2 -30 -4 0 -7 -16 -7 -35 0 -19 3 -35 7 -35 4 0 3 -13 -2 -30 -5
-16 -6 -30 -2 -30 8 0 6 -85 -2 -99 -4 -5 -2 -12 3 -16 6 -3 7 -15 1 -29 -4
-12 -5 -29 0 -36 5 -7 5 -23 0 -35 -4 -11 -4 -28 1 -37 6 -10 6 -19 0 -22 -6
-4 -6 -18 -1 -36 5 -17 6 -30 2 -30 -4 0 -6 -21 -4 -47 1 -27 3 -54 2 -60 0
-7 0 -20 0 -28 0 -8 0 -22 0 -30 0 -8 0 -22 0 -30 0 -8 0 -22 0 -30 0 -8 0
-22 0 -30 0 -8 0 -22 0 -30 0 -8 0 -22 0 -30 0 -8 0 -22 0 -30 0 -8 0 -22 0
-30 0 -8 0 -22 0 -30 0 -8 0 -22 0 -30 0 -8 0 -22 0 -30 0 -8 0 -22 0 -30 0
-8 0 -22 0 -30 0 -8 0 -22 0 -30 0 -8 0 -22 0 -30 0 -8 0 -21 0 -27 0 -7 1
-29 2 -48 1 -20 -1 -43 -5 -52 -3 -10 -2 -20 3 -23 5 -3 6 -15 0 -29 -4 -12
-5 -29 0 -36 5 -7 5 -23 0 -35 -4 -11 -4 -28 1 -37 6 -10 6 -19 0 -22 -6 -4
-6 -18 -1 -36 5 -17 6 -30 2 -30 -8 0 -7 -84 1 -97 3 -5 2 -15 -3 -23 -5 -8
-5 -21 0 -30 5 -9 5 -22 0 -29 -4 -8 -4 -27 0 -42 5 -16 5 -29 0 -29 -5 0 -5
-13 0 -30 5 -17 5 -30 0 -30 -5 0 -5 -13 0 -30 5 -17 5 -30 0 -30 -5 0 -5 -13
0 -30 5 -17 5 -30 0 -30 -5 0 -5 -13 0 -30 5 -16 6 -30 2 -30 -4 0 -7 -16 -7
-35 0 -19 3 -35 7 -35 4 0 3 -13 -2 -30 -5 -16 -6 -30 -2 -30 8 0 6 -85 -2
-99 -4 -5 -2 -12 3 -16 6 -3 7 -15 1 -29 -4 -12 -5 -29 0 -36 5 -7 5 -23 0
-35 -4 -11 -4 -28 1 -37 6 -10 6 -19 0 -22 -6 -4 -6 -18 -1 -36 5 -17 6 -30 2
-30 -4 0 -6 -21 -4 -47 1 -27 3 -54 2 -60 0 -7 0 -20 0 -28 0 -8 0 -22 0 -30
0 -8 0 -22 0 -30 0 -8 0 -22 0 -30 0 -8 0 -22 0 -30 0 -8 0 -22 0 -30 0 -8 0
-22 0 -30 0 -8 0 -22 0 -30 0 -8 0 -22 0 -30 0 -8 0 -22 0 -30 0 -8 0 -22 0
-30 0 -8 0 -22 0 -30 0 -8 0 -22 0 -30 0 -8 0 -22 0 -30 0 -8 0 -22 0 -30 0
-8 0 -22 0 -30 0 -8 0 -21 0 -27 0 -7 1 -29 2 -48 1 -20 -1 -43 -5 -52 -3 -10
-2 -20 3 -23 5 -3 6 -15 0 -29 -4 -12 -5 -29 0 -36 5 -7 5 -23 0 -35 -4 -11
-4 -28 1 -37 6 -10 6 -19 0 -22 -6 -4 -6 -18 -1 -36 5 -17 6 -30 2 -30 -8 0
-7 -89 2 -97 3 -3 1 -13 -4 -22 -5 -10 -5 -23 0 -31 5 -8 5 -21 -1 -31 -6 -11
-5 -20 1 -24 6 -3 6 -15 0 -30 -6 -15 -6 -27 0 -30 6 -3 6 -15 0 -30 -5 -14
-6 -25 -1 -25 5 0 7 -9 4 -20 -5 -20 1 -20 1191 -20 l1196 0 1 2243 c0 1233 2
2262 4 2287 5 68 15 162 20 190 3 14 8 42 11 64 8 53 9 58 39 166 31 115 28
107 51 165 4 11 8 22 9 25 0 3 13 30 28 61 15 31 27 59 27 63 0 4 8 19 18 34
10 15 43 68 72 117 30 50 59 95 64 101 20 22 46 54 46 58 0 14 162 183 231
242 83 70 205 164 213 164 3 0 24 13 48 29 86 58 367 185 431 195 6 1 18 5 25
10 7 4 16 6 18 3 3 -3 21 1 40 9 19 8 35 14 36 13 3 -1 73 11 103 18 114 27
247 38 460 38 192 0 293 -6 315 -20 32 -20 -22 38 -124 130 -70 65 -343 265
-360 265 -3 0 -22 12 -43 26 -49 33 -253 136 -253 128 0 -4 -8 0 -17 8 -40 33
-375 142 -498 162 -16 2 -30 5 -30 6 0 1 -9 3 -20 4 -102 13 -142 19 -160 23
-24 6 -482 13 -487 7z"/>
<path d="M9229 9906 c-4 -3 -143 -18 -176 -19 -7 0 -13 -4 -13 -9 0 -5 -5 -6
-10 -3 -6 3 -47 -1 -93 -11 -45 -9 -86 -17 -92 -18 -41 -8 -82 -19 -90 -24 -5
-4 -19 -8 -30 -10 -25 -4 -36 -7 -55 -15 -14 -5 -89 -30 -100 -32 -3 -1 -18
-7 -33 -13 -16 -7 -34 -12 -42 -12 -8 0 -16 -4 -19 -9 -3 -5 -18 -12 -33 -16
-15 -3 -73 -29 -129 -56 -57 -27 -105 -49 -107 -49 -6 0 -164 -92 -217 -126
-25 -16 -52 -33 -61 -39 -224 -141 -500 -394 -684 -625 -19 -25 -39 -50 -44
-56 -4 -5 -13 -20 -20 -31 -6 -12 -17 -27 -24 -35 -21 -21 -129 -205 -172
-293 -22 -44 -42 -82 -45 -85 -3 -3 -7 -14 -8 -25 -2 -11 -10 -31 -17 -45 -22
-41 -69 -174 -90 -250 -1 -3 -7 -25 -14 -50 -7 -25 -14 -49 -15 -55 -2 -5 -8
-36 -15 -67 -7 -32 -14 -70 -16 -85 -2 -16 -4 -28 -5 -28 -3 0 -10 -40 -17
-95 -11 -89 -13 -2057 -2 -2125 5 -33 11 -71 14 -85 3 -14 9 -48 14 -75 26
-144 134 -374 198 -422 9 -7 13 -13 9 -13 -4 0 -1 -6 6 -13 7 -8 31 -34 54
-59 22 -24 65 -64 95 -89 30 -24 56 -47 57 -51 2 -5 8 -8 13 -8 5 0 33 -16 63
-35 30 -19 59 -35 64 -35 4 0 30 -11 58 -24 49 -24 195 -64 262 -72 21 -3 51
-7 67 -9 48 -7 195 -7 265 0 116 11 145 14 175 20 57 10 121 24 140 29 6 2 24
6 40 11 17 4 35 10 40 14 6 3 12 6 15 6 42 5 184 76 269 135 162 112 319 327
366 500 1 3 5 12 8 20 20 49 39 195 43 325 4 159 12 768 19 1485 5 493 9 558
37 665 5 22 12 51 15 65 4 25 12 50 53 165 26 72 105 228 137 271 13 17 23 34
23 38 0 4 8 18 18 31 9 12 24 33 32 45 80 119 293 343 396 415 15 11 36 28 46
38 10 9 18 14 18 10 0 -3 10 3 23 14 49 46 244 154 367 203 30 12 69 28 85 35
28 13 189 61 231 70 10 2 51 10 89 18 162 35 240 42 455 41 187 0 278 -6 299
-18 6 -4 11 -1 11 6 -1 14 -147 131 -259 208 -36 25 -68 47 -71 50 -6 6 -12 9
-130 79 -127 74 -314 165 -410 200 -19 7 -47 19 -62 27 -15 8 -30 15 -33 14
-5 -1 -166 47 -195 57 -8 4 -24 8 -35 10 -28 6 -38 9 -55 16 -8 3 -31 8 -50
11 -55 9 -93 17 -100 21 -4 2 -29 7 -56 11 -27 3 -58 8 -69 10 -11 2 -43 7
-71 9 -28 3 -62 8 -75 11 -25 6 -524 15 -530 10z"/>
<path d="M10917 8354 c-2 -2 -23 -6 -48 -8 -61 -7 -194 -43 -243 -67 -22 -10
-46 -19 -53 -19 -7 0 -13 -4 -13 -10 0 -5 -6 -10 -13 -10 -46 0 -261 -178
-349 -290 -40 -51 -148 -207 -148 -215 0 -2 -14 -33 -31 -67 -57 -117 -103
-280 -117 -418 -3 -36 -6 -1023 -7 -2195 l0 -2130 1183 -2 c895 -1 1182 1
1183 10 4 75 -1 4413 -5 4442 -9 57 -13 72 -30 143 -19 75 -74 219 -87 227 -5
4 -9 12 -9 20 0 30 -177 267 -212 283 -3 2 -19 16 -35 31 -62 58 -293 196
-293 174 0 -5 -4 -3 -8 2 -9 13 -141 55 -217 70 -125 24 -213 33 -327 33 -65
0 -119 -2 -121 -4z"/>
<path d="M4535 8339 c-22 -4 -53 -9 -70 -12 -42 -8 -64 -13 -115 -28 -25 -7
-49 -13 -55 -15 -32 -6 -245 -116 -271 -139 -31 -27 -55 -45 -59 -45 -7 0 -42
-30 -93 -81 -71 -69 -104 -108 -150 -179 -23 -36 -45 -69 -50 -75 -10 -13 -64
-127 -66 -140 -1 -5 -4 -14 -7 -20 -9 -14 -45 -143 -53 -185 -18 -92 -20 -219
-19 -1090 0 -832 4 -1058 18 -1110 2 -8 7 -42 10 -75 5 -53 27 -152 42 -195 4
-8 7 -19 9 -25 34 -124 168 -413 264 -571 22 -36 40 -70 40 -74 0 -5 3 -10 8
-12 4 -1 29 -37 57 -78 42 -64 129 -184 145 -200 3 -3 30 -34 60 -70 85 -102
182 -202 271 -282 15 -12 44 -39 66 -58 83 -74 241 -189 373 -271 73 -46 79
-49 205 -112 120 -60 146 -71 158 -69 4 1 7 -2 7 -6 0 -5 19 -15 43 -22 23 -7
46 -17 51 -22 6 -4 18 -8 28 -8 10 0 26 -4 36 -9 39 -20 169 -61 242 -76 8 -2
38 -9 65 -15 28 -6 64 -13 80 -16 17 -2 41 -6 55 -9 14 -4 41 -7 60 -9 19 -2
67 -7 105 -12 90 -11 409 -11 500 -1 39 5 86 10 105 13 19 2 48 7 65 11 16 3
39 7 50 8 32 3 135 25 194 42 29 8 59 16 65 17 6 2 38 11 71 21 33 11 62 20
65 20 3 1 14 5 25 9 167 64 160 61 295 122 47 22 103 49 125 61 22 12 66 36
98 52 98 52 329 199 335 214 2 4 10 7 17 7 7 0 15 4 17 8 2 4 21 21 43 37 43
33 65 50 110 90 l30 27 -30 -7 c-56 -13 -57 -13 -190 -31 -68 -10 -283 -9
-375 0 -64 7 -134 19 -240 41 -92 20 -302 100 -390 148 -92 50 -145 81 -150
87 -3 3 -23 17 -45 30 -22 14 -47 30 -55 37 -8 7 -43 34 -78 62 -84 66 -100
81 -206 186 -109 108 -176 182 -176 195 0 5 -6 13 -13 17 -7 4 -29 31 -47 58
-19 28 -37 52 -42 53 -4 2 -8 8 -8 13 0 6 -17 36 -39 67 -35 53 -134 239 -129
244 1 2 -5 17 -14 33 -29 55 -75 184 -84 233 -2 12 -6 32 -9 45 -17 82 -25
123 -31 164 -4 27 -8 482 -9 1013 -1 531 -5 988 -9 1015 -5 46 -8 61 -20 121
-23 112 -149 376 -188 392 -4 2 -8 9 -8 16 0 18 -146 166 -212 214 -55 41
-200 122 -217 122 -5 0 -26 8 -47 17 -22 9 -43 18 -49 19 -36 9 -208 44 -245
50 -66 9 -299 12 -345 3z"/>
</g>
</svg>
