<svg width="14" height="14" viewBox="0 0 14 14" fill="none" xmlns="http://www.w3.org/2000/svg">
<path d="M10.4444 6.4222H9.06665V7.79999H10.4444V6.4222Z" fill="white"/>
<path d="M7.68889 6.4222H6.3111V7.79999H7.68889V6.4222Z" fill="white"/>
<path d="M4.93337 6.4222H3.55557V7.79999H4.93337V6.4222Z" fill="white"/>
<path d="M11.8222 1.59999H11.1334V0.222198H9.75557V1.59999H4.24445V0.222198H2.86666V1.59999H2.17778C1.41311 1.59999 0.806898 2.21999 0.806898 2.97778L0.799988 12.6222C0.799988 13.38 1.41311 14 2.17778 14H11.8222C12.58 14 13.2 13.38 13.2 12.6222V2.97775C13.2 2.21999 12.58 1.59999 11.8222 1.59999ZM11.8222 12.6222H2.17778V5.04441H11.8222V12.6222Z" fill="white"/>
</svg>
