<svg width="8" height="12" viewBox="0 0 8 12" fill="none" xmlns="http://www.w3.org/2000/svg">
<path d="M6.81982 4.25475L6.36036 5.42966H0L0.362755 4.25475H6.81982ZM5.95404 6.57034L5.48489 7.75666H0L0.362755 6.57034H5.95404ZM8 1.15779L7.42924 2.60076C7.24871 2.41825 7.052 2.25285 6.8392 2.10456C6.6264 1.95627 6.39742 1.8384 6.15236 1.75095C5.90729 1.6597 5.6445 1.61407 5.36396 1.61407C4.84804 1.61407 4.38855 1.77757 3.98549 2.10456C3.58243 2.43156 3.26481 2.92205 3.03265 3.57604C2.80371 4.22624 2.68924 5.03612 2.68924 6.00571C2.68924 6.97528 2.80371 7.78517 3.03265 8.43535C3.26481 9.08553 3.58243 9.57415 3.98549 9.90109C4.38855 10.2243 4.84804 10.3859 5.36396 10.3859C5.64772 10.3859 5.91209 10.3423 6.15716 10.2548C6.40551 10.1673 6.6312 10.0533 6.83431 9.91255C7.04071 9.76811 7.22613 9.61593 7.39058 9.45633L7.97582 10.8935C7.63404 11.2585 7.23742 11.5342 6.78596 11.7205C6.33458 11.9068 5.86053 12 5.36396 12C4.55461 12 3.83716 11.7586 3.21161 11.2756C2.58928 10.7928 2.10076 10.1045 1.74607 9.21098C1.39138 8.31371 1.21403 7.24525 1.21403 6.00571C1.21403 4.76235 1.39138 3.69202 1.74607 2.79468C2.10076 1.89734 2.58928 1.20722 3.21161 0.724331C3.83716 0.24144 4.55461 0 5.36396 0C5.87991 0 6.36036 0.100756 6.80533 0.30228C7.25031 0.499996 7.64853 0.785171 8 1.15779Z" fill="#333333"/>
</svg>
