<svg width="8" height="12" viewBox="0 0 8 12" fill="none" xmlns="http://www.w3.org/2000/svg">
<path d="M4.80457 7.30078H0V5.76562H4.78638C5.1985 5.76562 5.53942 5.67774 5.80912 5.50195C6.07881 5.32226 6.27881 5.07617 6.40911 4.76367C6.53942 4.44727 6.60457 4.08399 6.60457 3.67383C6.60457 3.26758 6.53942 2.9043 6.40911 2.58399C6.27881 2.26367 6.08032 2.01171 5.81366 1.82813C5.54699 1.64063 5.21063 1.54688 4.80457 1.54688H2.82274V12H1.42274V0H4.80457C5.51063 0 6.10002 0.164063 6.57275 0.492183C7.04851 0.820309 7.40458 1.26171 7.64093 1.81641C7.88031 2.3711 8 2.98829 8 3.66797C8 4.35547 7.8788 4.97461 7.63641 5.52539C7.397 6.07226 7.03942 6.50586 6.56366 6.82617C6.09094 7.14257 5.50457 7.30078 4.80457 7.30078ZM4.87274 8.30859V9.84961H0V8.30859H4.87274Z" fill="#333333"/>
</svg>
