<svg width="8" height="12" viewBox="0 0 8 12" fill="none" xmlns="http://www.w3.org/2000/svg">
<path d="M3.5958 12V0H4.45669V12H3.5958ZM6.2887 3.72188C6.2327 3.27813 6.0017 2.93438 5.5958 2.69062C5.18985 2.44375 4.67892 2.32031 4.06299 2.32031C3.62205 2.32031 3.24059 2.38281 2.91863 2.50781C2.59668 2.62969 2.34646 2.79843 2.16798 3.01407C1.993 3.22656 1.90551 3.46875 1.90551 3.74062C1.90551 3.96875 1.965 4.16563 2.08399 4.33125C2.20647 4.49687 2.3657 4.63593 2.56168 4.74843C2.76115 4.85781 2.97463 4.95 3.2021 5.025C3.42957 5.09687 3.64829 5.15625 3.85827 5.20312L4.90814 5.44688C5.25109 5.52188 5.6028 5.62344 5.96325 5.75157C6.3237 5.87969 6.6579 6.04844 6.9659 6.25781C7.2738 6.46719 7.5223 6.72657 7.7113 7.03593C7.9038 7.34531 8 7.71566 8 8.14689C8 8.69066 7.8425 9.1734 7.5276 9.59529C7.2161 10.0172 6.7629 10.35 6.168 10.5938C5.57655 10.8375 4.86089 10.9593 4.021 10.9593C3.2161 10.9593 2.51968 10.8453 1.93176 10.6172C1.34383 10.3891 0.88364 10.0656 0.55118 9.64689C0.21872 9.225 0.035 8.72503 0 8.14689H1.6273C1.65879 8.49377 1.78478 8.7828 2.00525 9.01406C2.22922 9.24223 2.51444 9.41254 2.86089 9.525C3.21085 9.63437 3.59405 9.68906 4.0105 9.68906C4.46894 9.68906 4.87664 9.62503 5.2336 9.49689C5.59405 9.36566 5.87752 9.18437 6.084 8.95311C6.2905 8.71877 6.3937 8.44534 6.3937 8.13283C6.3937 7.84843 6.3027 7.61563 6.1207 7.43438C5.94226 7.25313 5.69904 7.10313 5.39108 6.98438C5.08661 6.86563 4.74191 6.76094 4.35696 6.67031L3.08661 6.36093C2.22572 6.15156 1.54331 5.84375 1.03937 5.4375C0.53893 5.03125 0.28871 4.49375 0.28871 3.825C0.28871 3.27188 0.45669 2.78907 0.79265 2.37657C1.12861 1.96407 1.58355 1.64375 2.15748 1.41562C2.73141 1.18437 3.37883 1.06875 4.09974 1.06875C4.82765 1.06875 5.46982 1.18281 6.0262 1.41093C6.5862 1.63906 7.0271 1.95313 7.3491 2.35312C7.671 2.75 7.839 3.20625 7.853 3.72188H6.2887Z" fill="#333333"/>
</svg>
